<mxfile host="app.diagrams.net" modified="2020-11-26T14:50:10.982Z" agent="5.0 (Windows NT 10.0; Win64; x64) AppleWebKit/537.36 (KHTML, like Gecko) Chrome/87.0.4280.67 Safari/537.36 Edg/87.0.664.47" etag="7-NlJOtDb3F-7IHD9XW_" version="13.10.3" type="github">
  <diagram id="R2lEEEUBdFMjLlhIrx00" name="Page-1">
    <mxGraphModel dx="2890" dy="1850" grid="1" gridSize="10" guides="1" tooltips="1" connect="1" arrows="1" fold="1" page="1" pageScale="1" pageWidth="850" pageHeight="1100" math="0" shadow="0" extFonts="Permanent Marker^https://fonts.googleapis.com/css?family=Permanent+Marker">
      <root>
        <mxCell id="0" />
        <mxCell id="1" parent="0" />
        <mxCell id="C-vyLk0tnHw3VtMMgP7b-23" value="tbl_page" style="shape=table;startSize=30;container=1;collapsible=1;childLayout=tableLayout;fixedRows=1;rowLines=0;fontStyle=1;align=center;resizeLast=1;" parent="1" vertex="1">
          <mxGeometry x="1540" y="1400" width="250" height="270" as="geometry" />
        </mxCell>
        <mxCell id="C-vyLk0tnHw3VtMMgP7b-24" value="" style="shape=partialRectangle;collapsible=0;dropTarget=0;pointerEvents=0;fillColor=none;points=[[0,0.5],[1,0.5]];portConstraint=eastwest;top=0;left=0;right=0;bottom=1;" parent="C-vyLk0tnHw3VtMMgP7b-23" vertex="1">
          <mxGeometry y="30" width="250" height="30" as="geometry" />
        </mxCell>
        <mxCell id="C-vyLk0tnHw3VtMMgP7b-25" value="PK" style="shape=partialRectangle;overflow=hidden;connectable=0;fillColor=none;top=0;left=0;bottom=0;right=0;fontStyle=1;" parent="C-vyLk0tnHw3VtMMgP7b-24" vertex="1">
          <mxGeometry width="30" height="30" as="geometry" />
        </mxCell>
        <mxCell id="C-vyLk0tnHw3VtMMgP7b-26" value="page_id" style="shape=partialRectangle;overflow=hidden;connectable=0;fillColor=none;top=0;left=0;bottom=0;right=0;align=left;spacingLeft=6;fontStyle=5;" parent="C-vyLk0tnHw3VtMMgP7b-24" vertex="1">
          <mxGeometry x="30" width="220" height="30" as="geometry" />
        </mxCell>
        <mxCell id="C-vyLk0tnHw3VtMMgP7b-27" value="" style="shape=partialRectangle;collapsible=0;dropTarget=0;pointerEvents=0;fillColor=none;points=[[0,0.5],[1,0.5]];portConstraint=eastwest;top=0;left=0;right=0;bottom=0;" parent="C-vyLk0tnHw3VtMMgP7b-23" vertex="1">
          <mxGeometry y="60" width="250" height="30" as="geometry" />
        </mxCell>
        <mxCell id="C-vyLk0tnHw3VtMMgP7b-28" value="" style="shape=partialRectangle;overflow=hidden;connectable=0;fillColor=none;top=0;left=0;bottom=0;right=0;" parent="C-vyLk0tnHw3VtMMgP7b-27" vertex="1">
          <mxGeometry width="30" height="30" as="geometry" />
        </mxCell>
        <mxCell id="C-vyLk0tnHw3VtMMgP7b-29" value="page_name" style="shape=partialRectangle;overflow=hidden;connectable=0;fillColor=none;top=0;left=0;bottom=0;right=0;align=left;spacingLeft=6;" parent="C-vyLk0tnHw3VtMMgP7b-27" vertex="1">
          <mxGeometry x="30" width="220" height="30" as="geometry" />
        </mxCell>
        <mxCell id="Ptq-kPGtWIjx5gkYeYEC-1" value="page_desc" style="shape=partialRectangle;overflow=hidden;connectable=0;fillColor=none;top=0;left=0;bottom=0;right=0;align=left;spacingLeft=6;" parent="1" vertex="1">
          <mxGeometry x="1570" y="1480" width="220" height="30" as="geometry" />
        </mxCell>
        <mxCell id="Ptq-kPGtWIjx5gkYeYEC-3" value="image" style="shape=partialRectangle;overflow=hidden;connectable=0;fillColor=none;top=0;left=0;bottom=0;right=0;align=left;spacingLeft=6;" parent="1" vertex="1">
          <mxGeometry x="1570" y="1520" width="220" height="30" as="geometry" />
        </mxCell>
        <mxCell id="Ptq-kPGtWIjx5gkYeYEC-4" value="meta_tag_title" style="shape=partialRectangle;overflow=hidden;connectable=0;fillColor=none;top=0;left=0;bottom=0;right=0;align=left;spacingLeft=6;" parent="1" vertex="1">
          <mxGeometry x="1570" y="1540" width="220" height="30" as="geometry" />
        </mxCell>
        <mxCell id="Ptq-kPGtWIjx5gkYeYEC-5" value="meta_tag_description" style="shape=partialRectangle;overflow=hidden;connectable=0;fillColor=none;top=0;left=0;bottom=0;right=0;align=left;spacingLeft=6;" parent="1" vertex="1">
          <mxGeometry x="1570" y="1560" width="220" height="30" as="geometry" />
        </mxCell>
        <mxCell id="Ptq-kPGtWIjx5gkYeYEC-6" value="meta_tag_keywords" style="shape=partialRectangle;overflow=hidden;connectable=0;fillColor=none;top=0;left=0;bottom=0;right=0;align=left;spacingLeft=6;" parent="1" vertex="1">
          <mxGeometry x="1570" y="1580" width="220" height="30" as="geometry" />
        </mxCell>
        <mxCell id="Ptq-kPGtWIjx5gkYeYEC-7" value="multi_images" style="shape=partialRectangle;overflow=hidden;connectable=0;fillColor=none;top=0;left=0;bottom=0;right=0;align=left;spacingLeft=6;" parent="1" vertex="1">
          <mxGeometry x="1570" y="1600" width="220" height="30" as="geometry" />
        </mxCell>
        <mxCell id="Ptq-kPGtWIjx5gkYeYEC-8" value="slug" style="shape=partialRectangle;overflow=hidden;connectable=0;fillColor=none;top=0;left=0;bottom=0;right=0;align=left;spacingLeft=6;" parent="1" vertex="1">
          <mxGeometry x="1570" y="1620" width="220" height="30" as="geometry" />
        </mxCell>
        <mxCell id="Ptq-kPGtWIjx5gkYeYEC-9" value="recordListingID" style="shape=partialRectangle;overflow=hidden;connectable=0;fillColor=none;top=0;left=0;bottom=0;right=0;align=left;spacingLeft=6;" parent="1" vertex="1">
          <mxGeometry x="1570" y="1640" width="220" height="30" as="geometry" />
        </mxCell>
        <mxCell id="Ptq-kPGtWIjx5gkYeYEC-10" value="tbl_addmore" style="shape=table;startSize=30;container=1;collapsible=1;childLayout=tableLayout;fixedRows=1;rowLines=0;fontStyle=1;align=center;resizeLast=1;" parent="1" vertex="1">
          <mxGeometry x="1860" y="1400" width="250" height="180" as="geometry" />
        </mxCell>
        <mxCell id="Ptq-kPGtWIjx5gkYeYEC-11" value="" style="shape=partialRectangle;collapsible=0;dropTarget=0;pointerEvents=0;fillColor=none;points=[[0,0.5],[1,0.5]];portConstraint=eastwest;top=0;left=0;right=0;bottom=1;" parent="Ptq-kPGtWIjx5gkYeYEC-10" vertex="1">
          <mxGeometry y="30" width="250" height="30" as="geometry" />
        </mxCell>
        <mxCell id="Ptq-kPGtWIjx5gkYeYEC-12" value="PK" style="shape=partialRectangle;overflow=hidden;connectable=0;fillColor=none;top=0;left=0;bottom=0;right=0;fontStyle=1;" parent="Ptq-kPGtWIjx5gkYeYEC-11" vertex="1">
          <mxGeometry width="30" height="30" as="geometry" />
        </mxCell>
        <mxCell id="Ptq-kPGtWIjx5gkYeYEC-13" value="addmore_id" style="shape=partialRectangle;overflow=hidden;connectable=0;fillColor=none;top=0;left=0;bottom=0;right=0;align=left;spacingLeft=6;fontStyle=5;" parent="Ptq-kPGtWIjx5gkYeYEC-11" vertex="1">
          <mxGeometry x="30" width="220" height="30" as="geometry" />
        </mxCell>
        <mxCell id="Ptq-kPGtWIjx5gkYeYEC-14" value="" style="shape=partialRectangle;collapsible=0;dropTarget=0;pointerEvents=0;fillColor=none;points=[[0,0.5],[1,0.5]];portConstraint=eastwest;top=0;left=0;right=0;bottom=0;" parent="Ptq-kPGtWIjx5gkYeYEC-10" vertex="1">
          <mxGeometry y="60" width="250" height="30" as="geometry" />
        </mxCell>
        <mxCell id="Ptq-kPGtWIjx5gkYeYEC-15" value="FK" style="shape=partialRectangle;overflow=hidden;connectable=0;fillColor=none;top=0;left=0;bottom=0;right=0;" parent="Ptq-kPGtWIjx5gkYeYEC-14" vertex="1">
          <mxGeometry width="30" height="30" as="geometry" />
        </mxCell>
        <mxCell id="Ptq-kPGtWIjx5gkYeYEC-16" value="page_id" style="shape=partialRectangle;overflow=hidden;connectable=0;fillColor=none;top=0;left=0;bottom=0;right=0;align=left;spacingLeft=6;" parent="Ptq-kPGtWIjx5gkYeYEC-14" vertex="1">
          <mxGeometry x="30" width="220" height="30" as="geometry" />
        </mxCell>
        <mxCell id="Ptq-kPGtWIjx5gkYeYEC-17" value="title" style="shape=partialRectangle;overflow=hidden;connectable=0;fillColor=none;top=0;left=0;bottom=0;right=0;align=left;spacingLeft=6;" parent="1" vertex="1">
          <mxGeometry x="1890" y="1480" width="220" height="30" as="geometry" />
        </mxCell>
        <mxCell id="Ptq-kPGtWIjx5gkYeYEC-18" value="small_desc" style="shape=partialRectangle;overflow=hidden;connectable=0;fillColor=none;top=0;left=0;bottom=0;right=0;align=left;spacingLeft=6;" parent="1" vertex="1">
          <mxGeometry x="1890" y="1500" width="220" height="30" as="geometry" />
        </mxCell>
        <mxCell id="Ptq-kPGtWIjx5gkYeYEC-19" value="extra_desc" style="shape=partialRectangle;overflow=hidden;connectable=0;fillColor=none;top=0;left=0;bottom=0;right=0;align=left;spacingLeft=6;" parent="1" vertex="1">
          <mxGeometry x="1890" y="1520" width="220" height="30" as="geometry" />
        </mxCell>
        <mxCell id="Ptq-kPGtWIjx5gkYeYEC-20" value="extra_icon" style="shape=partialRectangle;overflow=hidden;connectable=0;fillColor=none;top=0;left=0;bottom=0;right=0;align=left;spacingLeft=6;" parent="1" vertex="1">
          <mxGeometry x="1890" y="1540" width="220" height="30" as="geometry" />
        </mxCell>
        <mxCell id="Ptq-kPGtWIjx5gkYeYEC-26" style="edgeStyle=orthogonalEdgeStyle;rounded=0;orthogonalLoop=1;jettySize=auto;html=1;exitX=0;exitY=0.5;exitDx=0;exitDy=0;entryX=1;entryY=0.5;entryDx=0;entryDy=0;" parent="1" source="Ptq-kPGtWIjx5gkYeYEC-14" target="C-vyLk0tnHw3VtMMgP7b-24" edge="1">
          <mxGeometry relative="1" as="geometry" />
        </mxCell>
        <mxCell id="Ptq-kPGtWIjx5gkYeYEC-39" value="tbl_cat" style="shape=table;startSize=30;container=1;collapsible=1;childLayout=tableLayout;fixedRows=1;rowLines=0;fontStyle=1;align=center;resizeLast=1;" parent="1" vertex="1">
          <mxGeometry x="200" y="560" width="250" height="130" as="geometry" />
        </mxCell>
        <mxCell id="Ptq-kPGtWIjx5gkYeYEC-40" value="" style="shape=partialRectangle;collapsible=0;dropTarget=0;pointerEvents=0;fillColor=none;points=[[0,0.5],[1,0.5]];portConstraint=eastwest;top=0;left=0;right=0;bottom=1;" parent="Ptq-kPGtWIjx5gkYeYEC-39" vertex="1">
          <mxGeometry y="30" width="250" height="30" as="geometry" />
        </mxCell>
        <mxCell id="Ptq-kPGtWIjx5gkYeYEC-41" value="PK" style="shape=partialRectangle;overflow=hidden;connectable=0;fillColor=none;top=0;left=0;bottom=0;right=0;fontStyle=1;" parent="Ptq-kPGtWIjx5gkYeYEC-40" vertex="1">
          <mxGeometry width="30" height="30" as="geometry" />
        </mxCell>
        <mxCell id="Ptq-kPGtWIjx5gkYeYEC-42" value="cat_id" style="shape=partialRectangle;overflow=hidden;connectable=0;fillColor=none;top=0;left=0;bottom=0;right=0;align=left;spacingLeft=6;fontStyle=5;" parent="Ptq-kPGtWIjx5gkYeYEC-40" vertex="1">
          <mxGeometry x="30" width="220" height="30" as="geometry" />
        </mxCell>
        <mxCell id="Ptq-kPGtWIjx5gkYeYEC-43" value="" style="shape=partialRectangle;collapsible=0;dropTarget=0;pointerEvents=0;fillColor=none;points=[[0,0.5],[1,0.5]];portConstraint=eastwest;top=0;left=0;right=0;bottom=0;" parent="Ptq-kPGtWIjx5gkYeYEC-39" vertex="1">
          <mxGeometry y="60" width="250" height="30" as="geometry" />
        </mxCell>
        <mxCell id="Ptq-kPGtWIjx5gkYeYEC-44" value="" style="shape=partialRectangle;overflow=hidden;connectable=0;fillColor=none;top=0;left=0;bottom=0;right=0;" parent="Ptq-kPGtWIjx5gkYeYEC-43" vertex="1">
          <mxGeometry width="30" height="30" as="geometry" />
        </mxCell>
        <mxCell id="Ptq-kPGtWIjx5gkYeYEC-45" value="cat_parent_id" style="shape=partialRectangle;overflow=hidden;connectable=0;fillColor=none;top=0;left=0;bottom=0;right=0;align=left;spacingLeft=6;" parent="Ptq-kPGtWIjx5gkYeYEC-43" vertex="1">
          <mxGeometry x="30" width="220" height="30" as="geometry" />
        </mxCell>
        <mxCell id="Ptq-kPGtWIjx5gkYeYEC-46" value="cat_name" style="shape=partialRectangle;overflow=hidden;connectable=0;fillColor=none;top=0;left=0;bottom=0;right=0;align=left;spacingLeft=6;" parent="1" vertex="1">
          <mxGeometry x="230" y="640" width="220" height="30" as="geometry" />
        </mxCell>
        <mxCell id="Ptq-kPGtWIjx5gkYeYEC-47" value="entry_person_name" style="shape=partialRectangle;overflow=hidden;connectable=0;fillColor=none;top=0;left=0;bottom=0;right=0;align=left;spacingLeft=6;" parent="1" vertex="1">
          <mxGeometry x="230" y="660" width="220" height="30" as="geometry" />
        </mxCell>
        <mxCell id="Ptq-kPGtWIjx5gkYeYEC-50" value="tbl_company" style="shape=table;startSize=30;container=1;collapsible=1;childLayout=tableLayout;fixedRows=1;rowLines=0;fontStyle=1;align=center;resizeLast=1;" parent="1" vertex="1">
          <mxGeometry x="200" y="720" width="250" height="130" as="geometry" />
        </mxCell>
        <mxCell id="Ptq-kPGtWIjx5gkYeYEC-51" value="" style="shape=partialRectangle;collapsible=0;dropTarget=0;pointerEvents=0;fillColor=none;points=[[0,0.5],[1,0.5]];portConstraint=eastwest;top=0;left=0;right=0;bottom=1;" parent="Ptq-kPGtWIjx5gkYeYEC-50" vertex="1">
          <mxGeometry y="30" width="250" height="30" as="geometry" />
        </mxCell>
        <mxCell id="Ptq-kPGtWIjx5gkYeYEC-52" value="PK" style="shape=partialRectangle;overflow=hidden;connectable=0;fillColor=none;top=0;left=0;bottom=0;right=0;fontStyle=1;" parent="Ptq-kPGtWIjx5gkYeYEC-51" vertex="1">
          <mxGeometry width="30" height="30" as="geometry" />
        </mxCell>
        <mxCell id="Ptq-kPGtWIjx5gkYeYEC-53" value="company_id" style="shape=partialRectangle;overflow=hidden;connectable=0;fillColor=none;top=0;left=0;bottom=0;right=0;align=left;spacingLeft=6;fontStyle=5;" parent="Ptq-kPGtWIjx5gkYeYEC-51" vertex="1">
          <mxGeometry x="30" width="220" height="30" as="geometry" />
        </mxCell>
        <mxCell id="Ptq-kPGtWIjx5gkYeYEC-54" value="" style="shape=partialRectangle;collapsible=0;dropTarget=0;pointerEvents=0;fillColor=none;points=[[0,0.5],[1,0.5]];portConstraint=eastwest;top=0;left=0;right=0;bottom=0;" parent="Ptq-kPGtWIjx5gkYeYEC-50" vertex="1">
          <mxGeometry y="60" width="250" height="30" as="geometry" />
        </mxCell>
        <mxCell id="Ptq-kPGtWIjx5gkYeYEC-55" value="" style="shape=partialRectangle;overflow=hidden;connectable=0;fillColor=none;top=0;left=0;bottom=0;right=0;" parent="Ptq-kPGtWIjx5gkYeYEC-54" vertex="1">
          <mxGeometry width="30" height="30" as="geometry" />
        </mxCell>
        <mxCell id="Ptq-kPGtWIjx5gkYeYEC-56" value="company_name" style="shape=partialRectangle;overflow=hidden;connectable=0;fillColor=none;top=0;left=0;bottom=0;right=0;align=left;spacingLeft=6;" parent="Ptq-kPGtWIjx5gkYeYEC-54" vertex="1">
          <mxGeometry x="30" width="220" height="30" as="geometry" />
        </mxCell>
        <mxCell id="Ptq-kPGtWIjx5gkYeYEC-57" value="comoany_address" style="shape=partialRectangle;overflow=hidden;connectable=0;fillColor=none;top=0;left=0;bottom=0;right=0;align=left;spacingLeft=6;" parent="1" vertex="1">
          <mxGeometry x="230" y="800" width="220" height="30" as="geometry" />
        </mxCell>
        <mxCell id="Ptq-kPGtWIjx5gkYeYEC-58" value="company_gst_no" style="shape=partialRectangle;overflow=hidden;connectable=0;fillColor=none;top=0;left=0;bottom=0;right=0;align=left;spacingLeft=6;" parent="1" vertex="1">
          <mxGeometry x="230" y="820" width="220" height="30" as="geometry" />
        </mxCell>
        <mxCell id="Ptq-kPGtWIjx5gkYeYEC-59" value="tbl_contact" style="shape=table;startSize=30;container=1;collapsible=1;childLayout=tableLayout;fixedRows=1;rowLines=0;fontStyle=1;align=center;resizeLast=1;" parent="1" vertex="1">
          <mxGeometry x="200" y="880" width="250" height="240" as="geometry" />
        </mxCell>
        <mxCell id="Ptq-kPGtWIjx5gkYeYEC-60" value="" style="shape=partialRectangle;collapsible=0;dropTarget=0;pointerEvents=0;fillColor=none;points=[[0,0.5],[1,0.5]];portConstraint=eastwest;top=0;left=0;right=0;bottom=1;" parent="Ptq-kPGtWIjx5gkYeYEC-59" vertex="1">
          <mxGeometry y="30" width="250" height="30" as="geometry" />
        </mxCell>
        <mxCell id="Ptq-kPGtWIjx5gkYeYEC-61" value="PK" style="shape=partialRectangle;overflow=hidden;connectable=0;fillColor=none;top=0;left=0;bottom=0;right=0;fontStyle=1;" parent="Ptq-kPGtWIjx5gkYeYEC-60" vertex="1">
          <mxGeometry width="30" height="30" as="geometry" />
        </mxCell>
        <mxCell id="Ptq-kPGtWIjx5gkYeYEC-62" value="con_id" style="shape=partialRectangle;overflow=hidden;connectable=0;fillColor=none;top=0;left=0;bottom=0;right=0;align=left;spacingLeft=6;fontStyle=5;" parent="Ptq-kPGtWIjx5gkYeYEC-60" vertex="1">
          <mxGeometry x="30" width="220" height="30" as="geometry" />
        </mxCell>
        <mxCell id="Ptq-kPGtWIjx5gkYeYEC-63" value="" style="shape=partialRectangle;collapsible=0;dropTarget=0;pointerEvents=0;fillColor=none;points=[[0,0.5],[1,0.5]];portConstraint=eastwest;top=0;left=0;right=0;bottom=0;" parent="Ptq-kPGtWIjx5gkYeYEC-59" vertex="1">
          <mxGeometry y="60" width="250" height="30" as="geometry" />
        </mxCell>
        <mxCell id="Ptq-kPGtWIjx5gkYeYEC-64" value="" style="shape=partialRectangle;overflow=hidden;connectable=0;fillColor=none;top=0;left=0;bottom=0;right=0;" parent="Ptq-kPGtWIjx5gkYeYEC-63" vertex="1">
          <mxGeometry width="30" height="30" as="geometry" />
        </mxCell>
        <mxCell id="Ptq-kPGtWIjx5gkYeYEC-65" value="map_tag" style="shape=partialRectangle;overflow=hidden;connectable=0;fillColor=none;top=0;left=0;bottom=0;right=0;align=left;spacingLeft=6;" parent="Ptq-kPGtWIjx5gkYeYEC-63" vertex="1">
          <mxGeometry x="30" width="220" height="30" as="geometry" />
        </mxCell>
        <mxCell id="Ptq-kPGtWIjx5gkYeYEC-66" value="contact_desc" style="shape=partialRectangle;overflow=hidden;connectable=0;fillColor=none;top=0;left=0;bottom=0;right=0;align=left;spacingLeft=6;" parent="1" vertex="1">
          <mxGeometry x="230" y="960" width="220" height="30" as="geometry" />
        </mxCell>
        <mxCell id="Ptq-kPGtWIjx5gkYeYEC-67" value="email" style="shape=partialRectangle;overflow=hidden;connectable=0;fillColor=none;top=0;left=0;bottom=0;right=0;align=left;spacingLeft=6;" parent="1" vertex="1">
          <mxGeometry x="230" y="980" width="220" height="30" as="geometry" />
        </mxCell>
        <mxCell id="Ptq-kPGtWIjx5gkYeYEC-68" value="contact_no" style="shape=partialRectangle;overflow=hidden;connectable=0;fillColor=none;top=0;left=0;bottom=0;right=0;align=left;spacingLeft=6;" parent="1" vertex="1">
          <mxGeometry x="230" y="1000" width="220" height="30" as="geometry" />
        </mxCell>
        <mxCell id="Ptq-kPGtWIjx5gkYeYEC-69" value="meta_tag_title" style="shape=partialRectangle;overflow=hidden;connectable=0;fillColor=none;top=0;left=0;bottom=0;right=0;align=left;spacingLeft=6;" parent="1" vertex="1">
          <mxGeometry x="230" y="1020" width="220" height="30" as="geometry" />
        </mxCell>
        <mxCell id="Ptq-kPGtWIjx5gkYeYEC-70" value="meta_tag_description" style="shape=partialRectangle;overflow=hidden;connectable=0;fillColor=none;top=0;left=0;bottom=0;right=0;align=left;spacingLeft=6;" parent="1" vertex="1">
          <mxGeometry x="230" y="1040" width="220" height="30" as="geometry" />
        </mxCell>
        <mxCell id="Ptq-kPGtWIjx5gkYeYEC-71" value="meta_tag_keywords" style="shape=partialRectangle;overflow=hidden;connectable=0;fillColor=none;top=0;left=0;bottom=0;right=0;align=left;spacingLeft=6;" parent="1" vertex="1">
          <mxGeometry x="230" y="1060" width="220" height="30" as="geometry" />
        </mxCell>
        <mxCell id="Ptq-kPGtWIjx5gkYeYEC-72" value="opening_hours" style="shape=partialRectangle;overflow=hidden;connectable=0;fillColor=none;top=0;left=0;bottom=0;right=0;align=left;spacingLeft=6;" parent="1" vertex="1">
          <mxGeometry x="230" y="1080" width="220" height="30" as="geometry" />
        </mxCell>
        <mxCell id="Ptq-kPGtWIjx5gkYeYEC-75" value="tbl_document" style="shape=table;startSize=30;container=1;collapsible=1;childLayout=tableLayout;fixedRows=1;rowLines=0;fontStyle=1;align=center;resizeLast=1;" parent="1" vertex="1">
          <mxGeometry x="200" y="1160" width="250" height="130" as="geometry" />
        </mxCell>
        <mxCell id="Ptq-kPGtWIjx5gkYeYEC-76" value="" style="shape=partialRectangle;collapsible=0;dropTarget=0;pointerEvents=0;fillColor=none;points=[[0,0.5],[1,0.5]];portConstraint=eastwest;top=0;left=0;right=0;bottom=1;" parent="Ptq-kPGtWIjx5gkYeYEC-75" vertex="1">
          <mxGeometry y="30" width="250" height="30" as="geometry" />
        </mxCell>
        <mxCell id="Ptq-kPGtWIjx5gkYeYEC-77" value="PK" style="shape=partialRectangle;overflow=hidden;connectable=0;fillColor=none;top=0;left=0;bottom=0;right=0;fontStyle=1;" parent="Ptq-kPGtWIjx5gkYeYEC-76" vertex="1">
          <mxGeometry width="30" height="30" as="geometry" />
        </mxCell>
        <mxCell id="Ptq-kPGtWIjx5gkYeYEC-78" value="document_id" style="shape=partialRectangle;overflow=hidden;connectable=0;fillColor=none;top=0;left=0;bottom=0;right=0;align=left;spacingLeft=6;fontStyle=5;" parent="Ptq-kPGtWIjx5gkYeYEC-76" vertex="1">
          <mxGeometry x="30" width="220" height="30" as="geometry" />
        </mxCell>
        <mxCell id="Ptq-kPGtWIjx5gkYeYEC-79" value="" style="shape=partialRectangle;collapsible=0;dropTarget=0;pointerEvents=0;fillColor=none;points=[[0,0.5],[1,0.5]];portConstraint=eastwest;top=0;left=0;right=0;bottom=0;" parent="Ptq-kPGtWIjx5gkYeYEC-75" vertex="1">
          <mxGeometry y="60" width="250" height="30" as="geometry" />
        </mxCell>
        <mxCell id="Ptq-kPGtWIjx5gkYeYEC-80" value="FK" style="shape=partialRectangle;overflow=hidden;connectable=0;fillColor=none;top=0;left=0;bottom=0;right=0;" parent="Ptq-kPGtWIjx5gkYeYEC-79" vertex="1">
          <mxGeometry width="30" height="30" as="geometry" />
        </mxCell>
        <mxCell id="Ptq-kPGtWIjx5gkYeYEC-81" value="client_id" style="shape=partialRectangle;overflow=hidden;connectable=0;fillColor=none;top=0;left=0;bottom=0;right=0;align=left;spacingLeft=6;" parent="Ptq-kPGtWIjx5gkYeYEC-79" vertex="1">
          <mxGeometry x="30" width="220" height="30" as="geometry" />
        </mxCell>
        <mxCell id="Ptq-kPGtWIjx5gkYeYEC-82" value="entry_date" style="shape=partialRectangle;overflow=hidden;connectable=0;fillColor=none;top=0;left=0;bottom=0;right=0;align=left;spacingLeft=6;" parent="1" vertex="1">
          <mxGeometry x="230" y="1240" width="220" height="30" as="geometry" />
        </mxCell>
        <mxCell id="Ptq-kPGtWIjx5gkYeYEC-83" value="status" style="shape=partialRectangle;overflow=hidden;connectable=0;fillColor=none;top=0;left=0;bottom=0;right=0;align=left;spacingLeft=6;" parent="1" vertex="1">
          <mxGeometry x="230" y="1260" width="220" height="30" as="geometry" />
        </mxCell>
        <mxCell id="Ptq-kPGtWIjx5gkYeYEC-84" value="tbl_client" style="shape=table;startSize=30;container=1;collapsible=1;childLayout=tableLayout;fixedRows=1;rowLines=0;fontStyle=1;align=center;resizeLast=1;" parent="1" vertex="1">
          <mxGeometry x="-90" y="1160" width="250" height="290" as="geometry" />
        </mxCell>
        <mxCell id="Ptq-kPGtWIjx5gkYeYEC-85" value="" style="shape=partialRectangle;collapsible=0;dropTarget=0;pointerEvents=0;fillColor=none;points=[[0,0.5],[1,0.5]];portConstraint=eastwest;top=0;left=0;right=0;bottom=1;" parent="Ptq-kPGtWIjx5gkYeYEC-84" vertex="1">
          <mxGeometry y="30" width="250" height="30" as="geometry" />
        </mxCell>
        <mxCell id="Ptq-kPGtWIjx5gkYeYEC-86" value="PK" style="shape=partialRectangle;overflow=hidden;connectable=0;fillColor=none;top=0;left=0;bottom=0;right=0;fontStyle=1;" parent="Ptq-kPGtWIjx5gkYeYEC-85" vertex="1">
          <mxGeometry width="30" height="30" as="geometry" />
        </mxCell>
        <mxCell id="Ptq-kPGtWIjx5gkYeYEC-87" value="client_id" style="shape=partialRectangle;overflow=hidden;connectable=0;fillColor=none;top=0;left=0;bottom=0;right=0;align=left;spacingLeft=6;fontStyle=5;" parent="Ptq-kPGtWIjx5gkYeYEC-85" vertex="1">
          <mxGeometry x="30" width="220" height="30" as="geometry" />
        </mxCell>
        <mxCell id="Ptq-kPGtWIjx5gkYeYEC-88" value="" style="shape=partialRectangle;collapsible=0;dropTarget=0;pointerEvents=0;fillColor=none;points=[[0,0.5],[1,0.5]];portConstraint=eastwest;top=0;left=0;right=0;bottom=0;" parent="Ptq-kPGtWIjx5gkYeYEC-84" vertex="1">
          <mxGeometry y="60" width="250" height="30" as="geometry" />
        </mxCell>
        <mxCell id="Ptq-kPGtWIjx5gkYeYEC-89" value="" style="shape=partialRectangle;overflow=hidden;connectable=0;fillColor=none;top=0;left=0;bottom=0;right=0;" parent="Ptq-kPGtWIjx5gkYeYEC-88" vertex="1">
          <mxGeometry width="30" height="30" as="geometry" />
        </mxCell>
        <mxCell id="Ptq-kPGtWIjx5gkYeYEC-90" value="client_name" style="shape=partialRectangle;overflow=hidden;connectable=0;fillColor=none;top=0;left=0;bottom=0;right=0;align=left;spacingLeft=6;" parent="Ptq-kPGtWIjx5gkYeYEC-88" vertex="1">
          <mxGeometry x="30" width="220" height="30" as="geometry" />
        </mxCell>
        <mxCell id="Ptq-kPGtWIjx5gkYeYEC-91" value="client_address" style="shape=partialRectangle;overflow=hidden;connectable=0;fillColor=none;top=0;left=0;bottom=0;right=0;align=left;spacingLeft=6;" parent="1" vertex="1">
          <mxGeometry x="-60" y="1240" width="220" height="30" as="geometry" />
        </mxCell>
        <mxCell id="Ptq-kPGtWIjx5gkYeYEC-92" value="client_pincode" style="shape=partialRectangle;overflow=hidden;connectable=0;fillColor=none;top=0;left=0;bottom=0;right=0;align=left;spacingLeft=6;" parent="1" vertex="1">
          <mxGeometry x="-60" y="1260" width="220" height="30" as="geometry" />
        </mxCell>
        <mxCell id="Ptq-kPGtWIjx5gkYeYEC-93" value="client_city" style="shape=partialRectangle;overflow=hidden;connectable=0;fillColor=none;top=0;left=0;bottom=0;right=0;align=left;spacingLeft=6;" parent="1" vertex="1">
          <mxGeometry x="-60" y="1280" width="220" height="30" as="geometry" />
        </mxCell>
        <mxCell id="Ptq-kPGtWIjx5gkYeYEC-94" value="client_phone1" style="shape=partialRectangle;overflow=hidden;connectable=0;fillColor=none;top=0;left=0;bottom=0;right=0;align=left;spacingLeft=6;" parent="1" vertex="1">
          <mxGeometry x="-60" y="1300" width="220" height="30" as="geometry" />
        </mxCell>
        <mxCell id="Ptq-kPGtWIjx5gkYeYEC-95" value="client_mobile" style="shape=partialRectangle;overflow=hidden;connectable=0;fillColor=none;top=0;left=0;bottom=0;right=0;align=left;spacingLeft=6;" parent="1" vertex="1">
          <mxGeometry x="-60" y="1320" width="220" height="30" as="geometry" />
        </mxCell>
        <mxCell id="Ptq-kPGtWIjx5gkYeYEC-96" value="client_email" style="shape=partialRectangle;overflow=hidden;connectable=0;fillColor=none;top=0;left=0;bottom=0;right=0;align=left;spacingLeft=6;" parent="1" vertex="1">
          <mxGeometry x="-60" y="1340" width="220" height="30" as="geometry" />
        </mxCell>
        <mxCell id="Ptq-kPGtWIjx5gkYeYEC-97" value="password" style="shape=partialRectangle;overflow=hidden;connectable=0;fillColor=none;top=0;left=0;bottom=0;right=0;align=left;spacingLeft=6;" parent="1" vertex="1">
          <mxGeometry x="-60" y="1360" width="220" height="30" as="geometry" />
        </mxCell>
        <mxCell id="Ptq-kPGtWIjx5gkYeYEC-98" value="type" style="shape=partialRectangle;overflow=hidden;connectable=0;fillColor=none;top=0;left=0;bottom=0;right=0;align=left;spacingLeft=6;" parent="1" vertex="1">
          <mxGeometry x="-60" y="1380" width="220" height="30" as="geometry" />
        </mxCell>
        <mxCell id="Ptq-kPGtWIjx5gkYeYEC-99" value="gst_type" style="shape=partialRectangle;overflow=hidden;connectable=0;fillColor=none;top=0;left=0;bottom=0;right=0;align=left;spacingLeft=6;" parent="1" vertex="1">
          <mxGeometry x="-60" y="1400" width="220" height="30" as="geometry" />
        </mxCell>
        <mxCell id="Ptq-kPGtWIjx5gkYeYEC-100" value="gst_no" style="shape=partialRectangle;overflow=hidden;connectable=0;fillColor=none;top=0;left=0;bottom=0;right=0;align=left;spacingLeft=6;" parent="1" vertex="1">
          <mxGeometry x="-60" y="1420" width="220" height="30" as="geometry" />
        </mxCell>
        <mxCell id="Ptq-kPGtWIjx5gkYeYEC-101" style="edgeStyle=orthogonalEdgeStyle;rounded=0;orthogonalLoop=1;jettySize=auto;html=1;exitX=0;exitY=0.5;exitDx=0;exitDy=0;entryX=1;entryY=0.5;entryDx=0;entryDy=0;" parent="1" source="Ptq-kPGtWIjx5gkYeYEC-79" target="Ptq-kPGtWIjx5gkYeYEC-85" edge="1">
          <mxGeometry relative="1" as="geometry" />
        </mxCell>
        <mxCell id="Ptq-kPGtWIjx5gkYeYEC-102" value="tbl_document_year" style="shape=table;startSize=30;container=1;collapsible=1;childLayout=tableLayout;fixedRows=1;rowLines=0;fontStyle=1;align=center;resizeLast=1;" parent="1" vertex="1">
          <mxGeometry x="520" y="1160" width="250" height="130" as="geometry" />
        </mxCell>
        <mxCell id="Ptq-kPGtWIjx5gkYeYEC-103" value="" style="shape=partialRectangle;collapsible=0;dropTarget=0;pointerEvents=0;fillColor=none;points=[[0,0.5],[1,0.5]];portConstraint=eastwest;top=0;left=0;right=0;bottom=1;" parent="Ptq-kPGtWIjx5gkYeYEC-102" vertex="1">
          <mxGeometry y="30" width="250" height="30" as="geometry" />
        </mxCell>
        <mxCell id="Ptq-kPGtWIjx5gkYeYEC-104" value="PK" style="shape=partialRectangle;overflow=hidden;connectable=0;fillColor=none;top=0;left=0;bottom=0;right=0;fontStyle=1;" parent="Ptq-kPGtWIjx5gkYeYEC-103" vertex="1">
          <mxGeometry width="30" height="30" as="geometry" />
        </mxCell>
        <mxCell id="Ptq-kPGtWIjx5gkYeYEC-105" value="document_year_id" style="shape=partialRectangle;overflow=hidden;connectable=0;fillColor=none;top=0;left=0;bottom=0;right=0;align=left;spacingLeft=6;fontStyle=5;" parent="Ptq-kPGtWIjx5gkYeYEC-103" vertex="1">
          <mxGeometry x="30" width="220" height="30" as="geometry" />
        </mxCell>
        <mxCell id="Ptq-kPGtWIjx5gkYeYEC-106" value="" style="shape=partialRectangle;collapsible=0;dropTarget=0;pointerEvents=0;fillColor=none;points=[[0,0.5],[1,0.5]];portConstraint=eastwest;top=0;left=0;right=0;bottom=0;" parent="Ptq-kPGtWIjx5gkYeYEC-102" vertex="1">
          <mxGeometry y="60" width="250" height="30" as="geometry" />
        </mxCell>
        <mxCell id="Ptq-kPGtWIjx5gkYeYEC-107" value="FK" style="shape=partialRectangle;overflow=hidden;connectable=0;fillColor=none;top=0;left=0;bottom=0;right=0;" parent="Ptq-kPGtWIjx5gkYeYEC-106" vertex="1">
          <mxGeometry width="30" height="30" as="geometry" />
        </mxCell>
        <mxCell id="Ptq-kPGtWIjx5gkYeYEC-108" value="document_id" style="shape=partialRectangle;overflow=hidden;connectable=0;fillColor=none;top=0;left=0;bottom=0;right=0;align=left;spacingLeft=6;" parent="Ptq-kPGtWIjx5gkYeYEC-106" vertex="1">
          <mxGeometry x="30" width="220" height="30" as="geometry" />
        </mxCell>
        <mxCell id="Ptq-kPGtWIjx5gkYeYEC-109" value="document_year" style="shape=partialRectangle;overflow=hidden;connectable=0;fillColor=none;top=0;left=0;bottom=0;right=0;align=left;spacingLeft=6;" parent="1" vertex="1">
          <mxGeometry x="550" y="1240" width="220" height="30" as="geometry" />
        </mxCell>
        <mxCell id="Ptq-kPGtWIjx5gkYeYEC-110" value="status" style="shape=partialRectangle;overflow=hidden;connectable=0;fillColor=none;top=0;left=0;bottom=0;right=0;align=left;spacingLeft=6;" parent="1" vertex="1">
          <mxGeometry x="550" y="1260" width="220" height="30" as="geometry" />
        </mxCell>
        <mxCell id="Ptq-kPGtWIjx5gkYeYEC-111" style="edgeStyle=orthogonalEdgeStyle;rounded=0;orthogonalLoop=1;jettySize=auto;html=1;exitX=0;exitY=0.5;exitDx=0;exitDy=0;entryX=1;entryY=0.5;entryDx=0;entryDy=0;" parent="1" source="Ptq-kPGtWIjx5gkYeYEC-106" target="Ptq-kPGtWIjx5gkYeYEC-76" edge="1">
          <mxGeometry relative="1" as="geometry" />
        </mxCell>
        <mxCell id="Ptq-kPGtWIjx5gkYeYEC-119" style="edgeStyle=orthogonalEdgeStyle;rounded=0;orthogonalLoop=1;jettySize=auto;html=1;exitX=0;exitY=0.5;exitDx=0;exitDy=0;entryX=0;entryY=0.5;entryDx=0;entryDy=0;" parent="1" source="Ptq-kPGtWIjx5gkYeYEC-116" target="C-vyLk0tnHw3VtMMgP7b-24" edge="1">
          <mxGeometry relative="1" as="geometry" />
        </mxCell>
        <mxCell id="Ptq-kPGtWIjx5gkYeYEC-116" value="" style="shape=partialRectangle;collapsible=0;dropTarget=0;pointerEvents=0;fillColor=none;points=[[0,0.5],[1,0.5]];portConstraint=eastwest;top=0;left=0;right=0;bottom=0;" parent="1" vertex="1">
          <mxGeometry x="1540" y="1500" width="250" height="30" as="geometry" />
        </mxCell>
        <mxCell id="Ptq-kPGtWIjx5gkYeYEC-117" value="FK" style="shape=partialRectangle;overflow=hidden;connectable=0;fillColor=none;top=0;left=0;bottom=0;right=0;" parent="Ptq-kPGtWIjx5gkYeYEC-116" vertex="1">
          <mxGeometry width="30" height="30" as="geometry" />
        </mxCell>
        <mxCell id="Ptq-kPGtWIjx5gkYeYEC-118" value="page_parent_id" style="shape=partialRectangle;overflow=hidden;connectable=0;fillColor=none;top=0;left=0;bottom=0;right=0;align=left;spacingLeft=6;" parent="Ptq-kPGtWIjx5gkYeYEC-116" vertex="1">
          <mxGeometry x="30" width="220" height="30" as="geometry" />
        </mxCell>
        <mxCell id="Ptq-kPGtWIjx5gkYeYEC-120" value="tbl_document_year_cat" style="shape=table;startSize=30;container=1;collapsible=1;childLayout=tableLayout;fixedRows=1;rowLines=0;fontStyle=1;align=center;resizeLast=1;" parent="1" vertex="1">
          <mxGeometry x="840" y="1160" width="250" height="160" as="geometry" />
        </mxCell>
        <mxCell id="Ptq-kPGtWIjx5gkYeYEC-121" value="" style="shape=partialRectangle;collapsible=0;dropTarget=0;pointerEvents=0;fillColor=none;points=[[0,0.5],[1,0.5]];portConstraint=eastwest;top=0;left=0;right=0;bottom=1;" parent="Ptq-kPGtWIjx5gkYeYEC-120" vertex="1">
          <mxGeometry y="30" width="250" height="30" as="geometry" />
        </mxCell>
        <mxCell id="Ptq-kPGtWIjx5gkYeYEC-122" value="PK" style="shape=partialRectangle;overflow=hidden;connectable=0;fillColor=none;top=0;left=0;bottom=0;right=0;fontStyle=1;" parent="Ptq-kPGtWIjx5gkYeYEC-121" vertex="1">
          <mxGeometry width="30" height="30" as="geometry" />
        </mxCell>
        <mxCell id="Ptq-kPGtWIjx5gkYeYEC-123" value="document_year_cat_id" style="shape=partialRectangle;overflow=hidden;connectable=0;fillColor=none;top=0;left=0;bottom=0;right=0;align=left;spacingLeft=6;fontStyle=5;" parent="Ptq-kPGtWIjx5gkYeYEC-121" vertex="1">
          <mxGeometry x="30" width="220" height="30" as="geometry" />
        </mxCell>
        <mxCell id="Ptq-kPGtWIjx5gkYeYEC-124" value="" style="shape=partialRectangle;collapsible=0;dropTarget=0;pointerEvents=0;fillColor=none;points=[[0,0.5],[1,0.5]];portConstraint=eastwest;top=0;left=0;right=0;bottom=0;" parent="Ptq-kPGtWIjx5gkYeYEC-120" vertex="1">
          <mxGeometry y="60" width="250" height="30" as="geometry" />
        </mxCell>
        <mxCell id="Ptq-kPGtWIjx5gkYeYEC-125" value="FK" style="shape=partialRectangle;overflow=hidden;connectable=0;fillColor=none;top=0;left=0;bottom=0;right=0;" parent="Ptq-kPGtWIjx5gkYeYEC-124" vertex="1">
          <mxGeometry width="30" height="30" as="geometry" />
        </mxCell>
        <mxCell id="Ptq-kPGtWIjx5gkYeYEC-126" value="document_year_id" style="shape=partialRectangle;overflow=hidden;connectable=0;fillColor=none;top=0;left=0;bottom=0;right=0;align=left;spacingLeft=6;" parent="Ptq-kPGtWIjx5gkYeYEC-124" vertex="1">
          <mxGeometry x="30" width="220" height="30" as="geometry" />
        </mxCell>
        <mxCell id="Ptq-kPGtWIjx5gkYeYEC-127" value="cat_id" style="shape=partialRectangle;overflow=hidden;connectable=0;fillColor=none;top=0;left=0;bottom=0;right=0;align=left;spacingLeft=6;" parent="1" vertex="1">
          <mxGeometry x="870" y="1240" width="220" height="30" as="geometry" />
        </mxCell>
        <mxCell id="Ptq-kPGtWIjx5gkYeYEC-128" value="entry_date" style="shape=partialRectangle;overflow=hidden;connectable=0;fillColor=none;top=0;left=0;bottom=0;right=0;align=left;spacingLeft=6;" parent="1" vertex="1">
          <mxGeometry x="870" y="1260" width="220" height="30" as="geometry" />
        </mxCell>
        <mxCell id="Ptq-kPGtWIjx5gkYeYEC-129" value="status" style="shape=partialRectangle;overflow=hidden;connectable=0;fillColor=none;top=0;left=0;bottom=0;right=0;align=left;spacingLeft=6;" parent="1" vertex="1">
          <mxGeometry x="870" y="1280" width="220" height="30" as="geometry" />
        </mxCell>
        <mxCell id="Ptq-kPGtWIjx5gkYeYEC-130" style="edgeStyle=orthogonalEdgeStyle;rounded=0;orthogonalLoop=1;jettySize=auto;html=1;exitX=0;exitY=0.5;exitDx=0;exitDy=0;entryX=1;entryY=0.5;entryDx=0;entryDy=0;" parent="1" source="Ptq-kPGtWIjx5gkYeYEC-124" target="Ptq-kPGtWIjx5gkYeYEC-103" edge="1">
          <mxGeometry relative="1" as="geometry" />
        </mxCell>
        <mxCell id="Ptq-kPGtWIjx5gkYeYEC-131" value="tbl_favicon" style="shape=table;startSize=30;container=1;collapsible=1;childLayout=tableLayout;fixedRows=1;rowLines=0;fontStyle=1;align=center;resizeLast=1;" parent="1" vertex="1">
          <mxGeometry x="480" y="720" width="250" height="130" as="geometry" />
        </mxCell>
        <mxCell id="Ptq-kPGtWIjx5gkYeYEC-132" value="" style="shape=partialRectangle;collapsible=0;dropTarget=0;pointerEvents=0;fillColor=none;points=[[0,0.5],[1,0.5]];portConstraint=eastwest;top=0;left=0;right=0;bottom=1;" parent="Ptq-kPGtWIjx5gkYeYEC-131" vertex="1">
          <mxGeometry y="30" width="250" height="30" as="geometry" />
        </mxCell>
        <mxCell id="Ptq-kPGtWIjx5gkYeYEC-133" value="PK" style="shape=partialRectangle;overflow=hidden;connectable=0;fillColor=none;top=0;left=0;bottom=0;right=0;fontStyle=1;" parent="Ptq-kPGtWIjx5gkYeYEC-132" vertex="1">
          <mxGeometry width="30" height="30" as="geometry" />
        </mxCell>
        <mxCell id="Ptq-kPGtWIjx5gkYeYEC-134" value="favicon_id" style="shape=partialRectangle;overflow=hidden;connectable=0;fillColor=none;top=0;left=0;bottom=0;right=0;align=left;spacingLeft=6;fontStyle=5;" parent="Ptq-kPGtWIjx5gkYeYEC-132" vertex="1">
          <mxGeometry x="30" width="220" height="30" as="geometry" />
        </mxCell>
        <mxCell id="Ptq-kPGtWIjx5gkYeYEC-135" value="" style="shape=partialRectangle;collapsible=0;dropTarget=0;pointerEvents=0;fillColor=none;points=[[0,0.5],[1,0.5]];portConstraint=eastwest;top=0;left=0;right=0;bottom=0;" parent="Ptq-kPGtWIjx5gkYeYEC-131" vertex="1">
          <mxGeometry y="60" width="250" height="30" as="geometry" />
        </mxCell>
        <mxCell id="Ptq-kPGtWIjx5gkYeYEC-136" value="" style="shape=partialRectangle;overflow=hidden;connectable=0;fillColor=none;top=0;left=0;bottom=0;right=0;" parent="Ptq-kPGtWIjx5gkYeYEC-135" vertex="1">
          <mxGeometry width="30" height="30" as="geometry" />
        </mxCell>
        <mxCell id="Ptq-kPGtWIjx5gkYeYEC-137" value="size" style="shape=partialRectangle;overflow=hidden;connectable=0;fillColor=none;top=0;left=0;bottom=0;right=0;align=left;spacingLeft=6;" parent="Ptq-kPGtWIjx5gkYeYEC-135" vertex="1">
          <mxGeometry x="30" width="220" height="30" as="geometry" />
        </mxCell>
        <mxCell id="Ptq-kPGtWIjx5gkYeYEC-138" value="relation" style="shape=partialRectangle;overflow=hidden;connectable=0;fillColor=none;top=0;left=0;bottom=0;right=0;align=left;spacingLeft=6;" parent="1" vertex="1">
          <mxGeometry x="510" y="800" width="220" height="30" as="geometry" />
        </mxCell>
        <mxCell id="Ptq-kPGtWIjx5gkYeYEC-139" value="image_name" style="shape=partialRectangle;overflow=hidden;connectable=0;fillColor=none;top=0;left=0;bottom=0;right=0;align=left;spacingLeft=6;" parent="1" vertex="1">
          <mxGeometry x="510" y="820" width="220" height="30" as="geometry" />
        </mxCell>
        <mxCell id="Ptq-kPGtWIjx5gkYeYEC-140" value="tbl_files" style="shape=table;startSize=30;container=1;collapsible=1;childLayout=tableLayout;fixedRows=1;rowLines=0;fontStyle=1;align=center;resizeLast=1;" parent="1" vertex="1">
          <mxGeometry x="1160" y="1160" width="250" height="180" as="geometry" />
        </mxCell>
        <mxCell id="Ptq-kPGtWIjx5gkYeYEC-141" value="" style="shape=partialRectangle;collapsible=0;dropTarget=0;pointerEvents=0;fillColor=none;points=[[0,0.5],[1,0.5]];portConstraint=eastwest;top=0;left=0;right=0;bottom=1;" parent="Ptq-kPGtWIjx5gkYeYEC-140" vertex="1">
          <mxGeometry y="30" width="250" height="30" as="geometry" />
        </mxCell>
        <mxCell id="Ptq-kPGtWIjx5gkYeYEC-142" value="PK" style="shape=partialRectangle;overflow=hidden;connectable=0;fillColor=none;top=0;left=0;bottom=0;right=0;fontStyle=1;" parent="Ptq-kPGtWIjx5gkYeYEC-141" vertex="1">
          <mxGeometry width="30" height="30" as="geometry" />
        </mxCell>
        <mxCell id="Ptq-kPGtWIjx5gkYeYEC-143" value="file_id" style="shape=partialRectangle;overflow=hidden;connectable=0;fillColor=none;top=0;left=0;bottom=0;right=0;align=left;spacingLeft=6;fontStyle=5;" parent="Ptq-kPGtWIjx5gkYeYEC-141" vertex="1">
          <mxGeometry x="30" width="220" height="30" as="geometry" />
        </mxCell>
        <mxCell id="Ptq-kPGtWIjx5gkYeYEC-144" value="" style="shape=partialRectangle;collapsible=0;dropTarget=0;pointerEvents=0;fillColor=none;points=[[0,0.5],[1,0.5]];portConstraint=eastwest;top=0;left=0;right=0;bottom=0;" parent="Ptq-kPGtWIjx5gkYeYEC-140" vertex="1">
          <mxGeometry y="60" width="250" height="30" as="geometry" />
        </mxCell>
        <mxCell id="Ptq-kPGtWIjx5gkYeYEC-145" value="FK" style="shape=partialRectangle;overflow=hidden;connectable=0;fillColor=none;top=0;left=0;bottom=0;right=0;" parent="Ptq-kPGtWIjx5gkYeYEC-144" vertex="1">
          <mxGeometry width="30" height="30" as="geometry" />
        </mxCell>
        <mxCell id="Ptq-kPGtWIjx5gkYeYEC-146" value="document_year_cat_id" style="shape=partialRectangle;overflow=hidden;connectable=0;fillColor=none;top=0;left=0;bottom=0;right=0;align=left;spacingLeft=6;" parent="Ptq-kPGtWIjx5gkYeYEC-144" vertex="1">
          <mxGeometry x="30" width="220" height="30" as="geometry" />
        </mxCell>
        <mxCell id="Ptq-kPGtWIjx5gkYeYEC-147" value="file_name" style="shape=partialRectangle;overflow=hidden;connectable=0;fillColor=none;top=0;left=0;bottom=0;right=0;align=left;spacingLeft=6;" parent="1" vertex="1">
          <mxGeometry x="1190" y="1240" width="220" height="30" as="geometry" />
        </mxCell>
        <mxCell id="Ptq-kPGtWIjx5gkYeYEC-148" value="entry_date" style="shape=partialRectangle;overflow=hidden;connectable=0;fillColor=none;top=0;left=0;bottom=0;right=0;align=left;spacingLeft=6;" parent="1" vertex="1">
          <mxGeometry x="1190" y="1260" width="220" height="30" as="geometry" />
        </mxCell>
        <mxCell id="Ptq-kPGtWIjx5gkYeYEC-149" value="status" style="shape=partialRectangle;overflow=hidden;connectable=0;fillColor=none;top=0;left=0;bottom=0;right=0;align=left;spacingLeft=6;" parent="1" vertex="1">
          <mxGeometry x="1190" y="1300" width="220" height="30" as="geometry" />
        </mxCell>
        <mxCell id="Ptq-kPGtWIjx5gkYeYEC-150" value="entry_person_id" style="shape=partialRectangle;overflow=hidden;connectable=0;fillColor=none;top=0;left=0;bottom=0;right=0;align=left;spacingLeft=6;" parent="1" vertex="1">
          <mxGeometry x="1190" y="1280" width="220" height="30" as="geometry" />
        </mxCell>
        <mxCell id="Ptq-kPGtWIjx5gkYeYEC-151" style="edgeStyle=orthogonalEdgeStyle;rounded=0;orthogonalLoop=1;jettySize=auto;html=1;exitX=0;exitY=0.5;exitDx=0;exitDy=0;entryX=1;entryY=0.5;entryDx=0;entryDy=0;" parent="1" source="Ptq-kPGtWIjx5gkYeYEC-144" target="Ptq-kPGtWIjx5gkYeYEC-121" edge="1">
          <mxGeometry relative="1" as="geometry" />
        </mxCell>
        <mxCell id="Ptq-kPGtWIjx5gkYeYEC-159" value="tbl_attendant" style="shape=table;startSize=30;container=1;collapsible=1;childLayout=tableLayout;fixedRows=1;rowLines=0;fontStyle=1;align=center;resizeLast=1;" parent="1" vertex="1">
          <mxGeometry x="-150" y="1670" width="250" height="90" as="geometry" />
        </mxCell>
        <mxCell id="Ptq-kPGtWIjx5gkYeYEC-160" value="" style="shape=partialRectangle;collapsible=0;dropTarget=0;pointerEvents=0;fillColor=none;points=[[0,0.5],[1,0.5]];portConstraint=eastwest;top=0;left=0;right=0;bottom=1;" parent="Ptq-kPGtWIjx5gkYeYEC-159" vertex="1">
          <mxGeometry y="30" width="250" height="30" as="geometry" />
        </mxCell>
        <mxCell id="Ptq-kPGtWIjx5gkYeYEC-161" value="PK" style="shape=partialRectangle;overflow=hidden;connectable=0;fillColor=none;top=0;left=0;bottom=0;right=0;fontStyle=1;" parent="Ptq-kPGtWIjx5gkYeYEC-160" vertex="1">
          <mxGeometry width="30" height="30" as="geometry" />
        </mxCell>
        <mxCell id="Ptq-kPGtWIjx5gkYeYEC-162" value="attendant_id" style="shape=partialRectangle;overflow=hidden;connectable=0;fillColor=none;top=0;left=0;bottom=0;right=0;align=left;spacingLeft=6;fontStyle=5;" parent="Ptq-kPGtWIjx5gkYeYEC-160" vertex="1">
          <mxGeometry x="30" width="220" height="30" as="geometry" />
        </mxCell>
        <mxCell id="Ptq-kPGtWIjx5gkYeYEC-163" value="" style="shape=partialRectangle;collapsible=0;dropTarget=0;pointerEvents=0;fillColor=none;points=[[0,0.5],[1,0.5]];portConstraint=eastwest;top=0;left=0;right=0;bottom=0;" parent="Ptq-kPGtWIjx5gkYeYEC-159" vertex="1">
          <mxGeometry y="60" width="250" height="30" as="geometry" />
        </mxCell>
        <mxCell id="Ptq-kPGtWIjx5gkYeYEC-164" value="" style="shape=partialRectangle;overflow=hidden;connectable=0;fillColor=none;top=0;left=0;bottom=0;right=0;" parent="Ptq-kPGtWIjx5gkYeYEC-163" vertex="1">
          <mxGeometry width="30" height="30" as="geometry" />
        </mxCell>
        <mxCell id="Ptq-kPGtWIjx5gkYeYEC-165" value="attendant_name" style="shape=partialRectangle;overflow=hidden;connectable=0;fillColor=none;top=0;left=0;bottom=0;right=0;align=left;spacingLeft=6;" parent="Ptq-kPGtWIjx5gkYeYEC-163" vertex="1">
          <mxGeometry x="30" width="220" height="30" as="geometry" />
        </mxCell>
        <mxCell id="Ptq-kPGtWIjx5gkYeYEC-166" value="tbl_inquiry" style="shape=table;startSize=30;container=1;collapsible=1;childLayout=tableLayout;fixedRows=1;rowLines=0;fontStyle=1;align=center;resizeLast=1;" parent="1" vertex="1">
          <mxGeometry x="200" y="1800" width="250" height="130" as="geometry" />
        </mxCell>
        <mxCell id="Ptq-kPGtWIjx5gkYeYEC-167" value="" style="shape=partialRectangle;collapsible=0;dropTarget=0;pointerEvents=0;fillColor=none;points=[[0,0.5],[1,0.5]];portConstraint=eastwest;top=0;left=0;right=0;bottom=1;" parent="Ptq-kPGtWIjx5gkYeYEC-166" vertex="1">
          <mxGeometry y="30" width="250" height="30" as="geometry" />
        </mxCell>
        <mxCell id="Ptq-kPGtWIjx5gkYeYEC-168" value="PK" style="shape=partialRectangle;overflow=hidden;connectable=0;fillColor=none;top=0;left=0;bottom=0;right=0;fontStyle=1;" parent="Ptq-kPGtWIjx5gkYeYEC-167" vertex="1">
          <mxGeometry width="30" height="30" as="geometry" />
        </mxCell>
        <mxCell id="Ptq-kPGtWIjx5gkYeYEC-169" value="inquiry_id" style="shape=partialRectangle;overflow=hidden;connectable=0;fillColor=none;top=0;left=0;bottom=0;right=0;align=left;spacingLeft=6;fontStyle=5;" parent="Ptq-kPGtWIjx5gkYeYEC-167" vertex="1">
          <mxGeometry x="30" width="220" height="30" as="geometry" />
        </mxCell>
        <mxCell id="Ptq-kPGtWIjx5gkYeYEC-170" value="" style="shape=partialRectangle;collapsible=0;dropTarget=0;pointerEvents=0;fillColor=none;points=[[0,0.5],[1,0.5]];portConstraint=eastwest;top=0;left=0;right=0;bottom=0;" parent="Ptq-kPGtWIjx5gkYeYEC-166" vertex="1">
          <mxGeometry y="60" width="250" height="30" as="geometry" />
        </mxCell>
        <mxCell id="Ptq-kPGtWIjx5gkYeYEC-171" value="FK" style="shape=partialRectangle;overflow=hidden;connectable=0;fillColor=none;top=0;left=0;bottom=0;right=0;" parent="Ptq-kPGtWIjx5gkYeYEC-170" vertex="1">
          <mxGeometry width="30" height="30" as="geometry" />
        </mxCell>
        <mxCell id="Ptq-kPGtWIjx5gkYeYEC-172" value="attendant_id" style="shape=partialRectangle;overflow=hidden;connectable=0;fillColor=none;top=0;left=0;bottom=0;right=0;align=left;spacingLeft=6;" parent="Ptq-kPGtWIjx5gkYeYEC-170" vertex="1">
          <mxGeometry x="30" width="220" height="30" as="geometry" />
        </mxCell>
        <mxCell id="Ptq-kPGtWIjx5gkYeYEC-173" value="shipper_id" style="shape=partialRectangle;overflow=hidden;connectable=0;fillColor=none;top=0;left=0;bottom=0;right=0;align=left;spacingLeft=6;" parent="1" vertex="1">
          <mxGeometry x="230" y="1880" width="220" height="30" as="geometry" />
        </mxCell>
        <mxCell id="Ptq-kPGtWIjx5gkYeYEC-174" value="status" style="shape=partialRectangle;overflow=hidden;connectable=0;fillColor=none;top=0;left=0;bottom=0;right=0;align=left;spacingLeft=6;" parent="1" vertex="1">
          <mxGeometry x="230" y="1900" width="220" height="30" as="geometry" />
        </mxCell>
        <mxCell id="Ptq-kPGtWIjx5gkYeYEC-176" style="edgeStyle=orthogonalEdgeStyle;rounded=0;orthogonalLoop=1;jettySize=auto;html=1;exitX=0;exitY=0.5;exitDx=0;exitDy=0;entryX=1;entryY=0.667;entryDx=0;entryDy=0;entryPerimeter=0;" parent="1" source="Ptq-kPGtWIjx5gkYeYEC-170" target="Ptq-kPGtWIjx5gkYeYEC-160" edge="1">
          <mxGeometry relative="1" as="geometry" />
        </mxCell>
        <mxCell id="Ptq-kPGtWIjx5gkYeYEC-177" value="tbl_inquiry_confirmation" style="shape=table;startSize=30;container=1;collapsible=1;childLayout=tableLayout;fixedRows=1;rowLines=0;fontStyle=1;align=center;resizeLast=1;" parent="1" vertex="1">
          <mxGeometry x="520" y="1800" width="250" height="170" as="geometry" />
        </mxCell>
        <mxCell id="Ptq-kPGtWIjx5gkYeYEC-178" value="" style="shape=partialRectangle;collapsible=0;dropTarget=0;pointerEvents=0;fillColor=none;points=[[0,0.5],[1,0.5]];portConstraint=eastwest;top=0;left=0;right=0;bottom=1;" parent="Ptq-kPGtWIjx5gkYeYEC-177" vertex="1">
          <mxGeometry y="30" width="250" height="30" as="geometry" />
        </mxCell>
        <mxCell id="Ptq-kPGtWIjx5gkYeYEC-179" value="PK" style="shape=partialRectangle;overflow=hidden;connectable=0;fillColor=none;top=0;left=0;bottom=0;right=0;fontStyle=1;" parent="Ptq-kPGtWIjx5gkYeYEC-178" vertex="1">
          <mxGeometry width="30" height="30" as="geometry" />
        </mxCell>
        <mxCell id="Ptq-kPGtWIjx5gkYeYEC-180" value="inquiry_confirmation_id" style="shape=partialRectangle;overflow=hidden;connectable=0;fillColor=none;top=0;left=0;bottom=0;right=0;align=left;spacingLeft=6;fontStyle=5;" parent="Ptq-kPGtWIjx5gkYeYEC-178" vertex="1">
          <mxGeometry x="30" width="220" height="30" as="geometry" />
        </mxCell>
        <mxCell id="Ptq-kPGtWIjx5gkYeYEC-181" value="" style="shape=partialRectangle;collapsible=0;dropTarget=0;pointerEvents=0;fillColor=none;points=[[0,0.5],[1,0.5]];portConstraint=eastwest;top=0;left=0;right=0;bottom=0;" parent="Ptq-kPGtWIjx5gkYeYEC-177" vertex="1">
          <mxGeometry y="60" width="250" height="30" as="geometry" />
        </mxCell>
        <mxCell id="Ptq-kPGtWIjx5gkYeYEC-182" value="FK" style="shape=partialRectangle;overflow=hidden;connectable=0;fillColor=none;top=0;left=0;bottom=0;right=0;" parent="Ptq-kPGtWIjx5gkYeYEC-181" vertex="1">
          <mxGeometry width="30" height="30" as="geometry" />
        </mxCell>
        <mxCell id="Ptq-kPGtWIjx5gkYeYEC-183" value="service_confirmation_id" style="shape=partialRectangle;overflow=hidden;connectable=0;fillColor=none;top=0;left=0;bottom=0;right=0;align=left;spacingLeft=6;" parent="Ptq-kPGtWIjx5gkYeYEC-181" vertex="1">
          <mxGeometry x="30" width="220" height="30" as="geometry" />
        </mxCell>
        <mxCell id="Ptq-kPGtWIjx5gkYeYEC-185" value="entry_date" style="shape=partialRectangle;overflow=hidden;connectable=0;fillColor=none;top=0;left=0;bottom=0;right=0;align=left;spacingLeft=6;" parent="1" vertex="1">
          <mxGeometry x="550" y="1900" width="220" height="30" as="geometry" />
        </mxCell>
        <mxCell id="Ptq-kPGtWIjx5gkYeYEC-186" value="entry_person_id" style="shape=partialRectangle;overflow=hidden;connectable=0;fillColor=none;top=0;left=0;bottom=0;right=0;align=left;spacingLeft=6;" parent="1" vertex="1">
          <mxGeometry x="550" y="1920" width="220" height="30" as="geometry" />
        </mxCell>
        <mxCell id="Ptq-kPGtWIjx5gkYeYEC-188" value="tbl_service_confirmation" style="shape=table;startSize=30;container=1;collapsible=1;childLayout=tableLayout;fixedRows=1;rowLines=0;fontStyle=1;align=center;resizeLast=1;" parent="1" vertex="1">
          <mxGeometry x="200" y="1440" width="250" height="290" as="geometry" />
        </mxCell>
        <mxCell id="Ptq-kPGtWIjx5gkYeYEC-189" value="" style="shape=partialRectangle;collapsible=0;dropTarget=0;pointerEvents=0;fillColor=none;points=[[0,0.5],[1,0.5]];portConstraint=eastwest;top=0;left=0;right=0;bottom=1;" parent="Ptq-kPGtWIjx5gkYeYEC-188" vertex="1">
          <mxGeometry y="30" width="250" height="30" as="geometry" />
        </mxCell>
        <mxCell id="Ptq-kPGtWIjx5gkYeYEC-190" value="PK" style="shape=partialRectangle;overflow=hidden;connectable=0;fillColor=none;top=0;left=0;bottom=0;right=0;fontStyle=1;" parent="Ptq-kPGtWIjx5gkYeYEC-189" vertex="1">
          <mxGeometry width="30" height="30" as="geometry" />
        </mxCell>
        <mxCell id="Ptq-kPGtWIjx5gkYeYEC-191" value="service_confirmation_id" style="shape=partialRectangle;overflow=hidden;connectable=0;fillColor=none;top=0;left=0;bottom=0;right=0;align=left;spacingLeft=6;fontStyle=5;" parent="Ptq-kPGtWIjx5gkYeYEC-189" vertex="1">
          <mxGeometry x="30" width="220" height="30" as="geometry" />
        </mxCell>
        <mxCell id="Ptq-kPGtWIjx5gkYeYEC-192" value="" style="shape=partialRectangle;collapsible=0;dropTarget=0;pointerEvents=0;fillColor=none;points=[[0,0.5],[1,0.5]];portConstraint=eastwest;top=0;left=0;right=0;bottom=0;" parent="Ptq-kPGtWIjx5gkYeYEC-188" vertex="1">
          <mxGeometry y="60" width="250" height="30" as="geometry" />
        </mxCell>
        <mxCell id="Ptq-kPGtWIjx5gkYeYEC-193" value="FK" style="shape=partialRectangle;overflow=hidden;connectable=0;fillColor=none;top=0;left=0;bottom=0;right=0;" parent="Ptq-kPGtWIjx5gkYeYEC-192" vertex="1">
          <mxGeometry width="30" height="30" as="geometry" />
        </mxCell>
        <mxCell id="Ptq-kPGtWIjx5gkYeYEC-194" value="client_id" style="shape=partialRectangle;overflow=hidden;connectable=0;fillColor=none;top=0;left=0;bottom=0;right=0;align=left;spacingLeft=6;" parent="Ptq-kPGtWIjx5gkYeYEC-192" vertex="1">
          <mxGeometry x="30" width="220" height="30" as="geometry" />
        </mxCell>
        <mxCell id="Ptq-kPGtWIjx5gkYeYEC-197" value="entry_date" style="shape=partialRectangle;overflow=hidden;connectable=0;fillColor=none;top=0;left=0;bottom=0;right=0;align=left;spacingLeft=6;" parent="1" vertex="1">
          <mxGeometry x="230" y="1560" width="220" height="30" as="geometry" />
        </mxCell>
        <mxCell id="Ptq-kPGtWIjx5gkYeYEC-198" value="confirmation_date" style="shape=partialRectangle;overflow=hidden;connectable=0;fillColor=none;top=0;left=0;bottom=0;right=0;align=left;spacingLeft=6;" parent="1" vertex="1">
          <mxGeometry x="230" y="1580" width="220" height="30" as="geometry" />
        </mxCell>
        <mxCell id="Ptq-kPGtWIjx5gkYeYEC-199" value="net_amount" style="shape=partialRectangle;overflow=hidden;connectable=0;fillColor=none;top=0;left=0;bottom=0;right=0;align=left;spacingLeft=6;" parent="1" vertex="1">
          <mxGeometry x="230" y="1600" width="220" height="30" as="geometry" />
        </mxCell>
        <mxCell id="Ptq-kPGtWIjx5gkYeYEC-200" value="gst_charge" style="shape=partialRectangle;overflow=hidden;connectable=0;fillColor=none;top=0;left=0;bottom=0;right=0;align=left;spacingLeft=6;" parent="1" vertex="1">
          <mxGeometry x="230" y="1620" width="220" height="30" as="geometry" />
        </mxCell>
        <mxCell id="Ptq-kPGtWIjx5gkYeYEC-201" value="total_amount" style="shape=partialRectangle;overflow=hidden;connectable=0;fillColor=none;top=0;left=0;bottom=0;right=0;align=left;spacingLeft=6;" parent="1" vertex="1">
          <mxGeometry x="230" y="1640" width="220" height="30" as="geometry" />
        </mxCell>
        <mxCell id="Ptq-kPGtWIjx5gkYeYEC-202" value="credit_amount" style="shape=partialRectangle;overflow=hidden;connectable=0;fillColor=none;top=0;left=0;bottom=0;right=0;align=left;spacingLeft=6;" parent="1" vertex="1">
          <mxGeometry x="230" y="1660" width="220" height="30" as="geometry" />
        </mxCell>
        <mxCell id="Ptq-kPGtWIjx5gkYeYEC-203" value="received_amount" style="shape=partialRectangle;overflow=hidden;connectable=0;fillColor=none;top=0;left=0;bottom=0;right=0;align=left;spacingLeft=6;" parent="1" vertex="1">
          <mxGeometry x="230" y="1680" width="220" height="30" as="geometry" />
        </mxCell>
        <mxCell id="Ptq-kPGtWIjx5gkYeYEC-204" value="currency" style="shape=partialRectangle;overflow=hidden;connectable=0;fillColor=none;top=0;left=0;bottom=0;right=0;align=left;spacingLeft=6;" parent="1" vertex="1">
          <mxGeometry x="230" y="1700" width="220" height="30" as="geometry" />
        </mxCell>
        <mxCell id="Ptq-kPGtWIjx5gkYeYEC-232" style="edgeStyle=orthogonalEdgeStyle;rounded=0;orthogonalLoop=1;jettySize=auto;html=1;exitX=0;exitY=0.5;exitDx=0;exitDy=0;entryX=1;entryY=0.5;entryDx=0;entryDy=0;" parent="1" source="Ptq-kPGtWIjx5gkYeYEC-209" target="Ptq-kPGtWIjx5gkYeYEC-167" edge="1">
          <mxGeometry relative="1" as="geometry">
            <Array as="points">
              <mxPoint x="485" y="1895" />
              <mxPoint x="485" y="1845" />
            </Array>
          </mxGeometry>
        </mxCell>
        <mxCell id="Ptq-kPGtWIjx5gkYeYEC-209" value="" style="shape=partialRectangle;collapsible=0;dropTarget=0;pointerEvents=0;fillColor=none;points=[[0,0.5],[1,0.5]];portConstraint=eastwest;top=0;left=0;right=0;bottom=0;" parent="1" vertex="1">
          <mxGeometry x="520" y="1880" width="250" height="30" as="geometry" />
        </mxCell>
        <mxCell id="Ptq-kPGtWIjx5gkYeYEC-210" value="FK" style="shape=partialRectangle;overflow=hidden;connectable=0;fillColor=none;top=0;left=0;bottom=0;right=0;" parent="Ptq-kPGtWIjx5gkYeYEC-209" vertex="1">
          <mxGeometry width="30" height="30" as="geometry" />
        </mxCell>
        <mxCell id="Ptq-kPGtWIjx5gkYeYEC-211" value="inquiry_id" style="shape=partialRectangle;overflow=hidden;connectable=0;fillColor=none;top=0;left=0;bottom=0;right=0;align=left;spacingLeft=6;" parent="Ptq-kPGtWIjx5gkYeYEC-209" vertex="1">
          <mxGeometry x="30" width="220" height="30" as="geometry" />
        </mxCell>
        <mxCell id="Ptq-kPGtWIjx5gkYeYEC-213" value="" style="shape=partialRectangle;collapsible=0;dropTarget=0;pointerEvents=0;fillColor=none;points=[[0,0.5],[1,0.5]];portConstraint=eastwest;top=0;left=0;right=0;bottom=0;" parent="1" vertex="1">
          <mxGeometry x="200" y="1520" width="250" height="30" as="geometry" />
        </mxCell>
        <mxCell id="Ptq-kPGtWIjx5gkYeYEC-214" value="FK" style="shape=partialRectangle;overflow=hidden;connectable=0;fillColor=none;top=0;left=0;bottom=0;right=0;" parent="Ptq-kPGtWIjx5gkYeYEC-213" vertex="1">
          <mxGeometry width="30" height="30" as="geometry" />
        </mxCell>
        <mxCell id="Ptq-kPGtWIjx5gkYeYEC-215" value="entry_person_id" style="shape=partialRectangle;overflow=hidden;connectable=0;fillColor=none;top=0;left=0;bottom=0;right=0;align=left;spacingLeft=6;" parent="Ptq-kPGtWIjx5gkYeYEC-213" vertex="1">
          <mxGeometry x="30" width="220" height="30" as="geometry" />
        </mxCell>
        <mxCell id="Ptq-kPGtWIjx5gkYeYEC-230" style="edgeStyle=orthogonalEdgeStyle;rounded=0;orthogonalLoop=1;jettySize=auto;html=1;exitX=0;exitY=0.5;exitDx=0;exitDy=0;entryX=1;entryY=0.5;entryDx=0;entryDy=0;" parent="1" source="Ptq-kPGtWIjx5gkYeYEC-219" target="Ptq-kPGtWIjx5gkYeYEC-160" edge="1">
          <mxGeometry relative="1" as="geometry" />
        </mxCell>
        <mxCell id="Ptq-kPGtWIjx5gkYeYEC-219" value="" style="shape=partialRectangle;collapsible=0;dropTarget=0;pointerEvents=0;fillColor=none;points=[[0,0.5],[1,0.5]];portConstraint=eastwest;top=0;left=0;right=0;bottom=0;" parent="1" vertex="1">
          <mxGeometry x="200" y="1540" width="250" height="30" as="geometry" />
        </mxCell>
        <mxCell id="Ptq-kPGtWIjx5gkYeYEC-220" value="FK" style="shape=partialRectangle;overflow=hidden;connectable=0;fillColor=none;top=0;left=0;bottom=0;right=0;" parent="Ptq-kPGtWIjx5gkYeYEC-219" vertex="1">
          <mxGeometry width="30" height="30" as="geometry" />
        </mxCell>
        <mxCell id="Ptq-kPGtWIjx5gkYeYEC-221" value="attendant_id" style="shape=partialRectangle;overflow=hidden;connectable=0;fillColor=none;top=0;left=0;bottom=0;right=0;align=left;spacingLeft=6;" parent="Ptq-kPGtWIjx5gkYeYEC-219" vertex="1">
          <mxGeometry x="30" width="220" height="30" as="geometry" />
        </mxCell>
        <mxCell id="Ptq-kPGtWIjx5gkYeYEC-233" style="edgeStyle=orthogonalEdgeStyle;rounded=0;orthogonalLoop=1;jettySize=auto;html=1;exitX=0;exitY=0.5;exitDx=0;exitDy=0;entryX=1;entryY=0.5;entryDx=0;entryDy=0;" parent="1" source="Ptq-kPGtWIjx5gkYeYEC-181" target="Ptq-kPGtWIjx5gkYeYEC-189" edge="1">
          <mxGeometry relative="1" as="geometry">
            <Array as="points">
              <mxPoint x="500" y="1875" />
              <mxPoint x="500" y="1485" />
            </Array>
          </mxGeometry>
        </mxCell>
        <mxCell id="Ptq-kPGtWIjx5gkYeYEC-234" style="edgeStyle=orthogonalEdgeStyle;rounded=0;orthogonalLoop=1;jettySize=auto;html=1;exitX=0;exitY=0.5;exitDx=0;exitDy=0;entryX=1;entryY=0.5;entryDx=0;entryDy=0;" parent="1" source="Ptq-kPGtWIjx5gkYeYEC-192" target="Ptq-kPGtWIjx5gkYeYEC-85" edge="1">
          <mxGeometry relative="1" as="geometry" />
        </mxCell>
        <mxCell id="Ptq-kPGtWIjx5gkYeYEC-235" value="tbl_service_inclusion" style="shape=table;startSize=30;container=1;collapsible=1;childLayout=tableLayout;fixedRows=1;rowLines=0;fontStyle=1;align=center;resizeLast=1;" parent="1" vertex="1">
          <mxGeometry x="1170" y="1400" width="250" height="420" as="geometry" />
        </mxCell>
        <mxCell id="Ptq-kPGtWIjx5gkYeYEC-236" value="" style="shape=partialRectangle;collapsible=0;dropTarget=0;pointerEvents=0;fillColor=none;points=[[0,0.5],[1,0.5]];portConstraint=eastwest;top=0;left=0;right=0;bottom=1;" parent="Ptq-kPGtWIjx5gkYeYEC-235" vertex="1">
          <mxGeometry y="30" width="250" height="30" as="geometry" />
        </mxCell>
        <mxCell id="Ptq-kPGtWIjx5gkYeYEC-237" value="PK" style="shape=partialRectangle;overflow=hidden;connectable=0;fillColor=none;top=0;left=0;bottom=0;right=0;fontStyle=1;" parent="Ptq-kPGtWIjx5gkYeYEC-236" vertex="1">
          <mxGeometry width="30" height="30" as="geometry" />
        </mxCell>
        <mxCell id="Ptq-kPGtWIjx5gkYeYEC-238" value="service_inclusion_id" style="shape=partialRectangle;overflow=hidden;connectable=0;fillColor=none;top=0;left=0;bottom=0;right=0;align=left;spacingLeft=6;fontStyle=5;" parent="Ptq-kPGtWIjx5gkYeYEC-236" vertex="1">
          <mxGeometry x="30" width="220" height="30" as="geometry" />
        </mxCell>
        <mxCell id="Ptq-kPGtWIjx5gkYeYEC-239" value="" style="shape=partialRectangle;collapsible=0;dropTarget=0;pointerEvents=0;fillColor=none;points=[[0,0.5],[1,0.5]];portConstraint=eastwest;top=0;left=0;right=0;bottom=0;" parent="Ptq-kPGtWIjx5gkYeYEC-235" vertex="1">
          <mxGeometry y="60" width="250" height="30" as="geometry" />
        </mxCell>
        <mxCell id="Ptq-kPGtWIjx5gkYeYEC-240" value="FK" style="shape=partialRectangle;overflow=hidden;connectable=0;fillColor=none;top=0;left=0;bottom=0;right=0;" parent="Ptq-kPGtWIjx5gkYeYEC-239" vertex="1">
          <mxGeometry width="30" height="30" as="geometry" />
        </mxCell>
        <mxCell id="Ptq-kPGtWIjx5gkYeYEC-241" value="service_confirmation_id" style="shape=partialRectangle;overflow=hidden;connectable=0;fillColor=none;top=0;left=0;bottom=0;right=0;align=left;spacingLeft=6;" parent="Ptq-kPGtWIjx5gkYeYEC-239" vertex="1">
          <mxGeometry x="30" width="220" height="30" as="geometry" />
        </mxCell>
        <mxCell id="Ptq-kPGtWIjx5gkYeYEC-242" value="invoice_id" style="shape=partialRectangle;overflow=hidden;connectable=0;fillColor=none;top=0;left=0;bottom=0;right=0;align=left;spacingLeft=6;" parent="1" vertex="1">
          <mxGeometry x="1200" y="1520" width="220" height="30" as="geometry" />
        </mxCell>
        <mxCell id="Ptq-kPGtWIjx5gkYeYEC-243" value="performa_id" style="shape=partialRectangle;overflow=hidden;connectable=0;fillColor=none;top=0;left=0;bottom=0;right=0;align=left;spacingLeft=6;" parent="1" vertex="1">
          <mxGeometry x="1200" y="1540" width="220" height="30" as="geometry" />
        </mxCell>
        <mxCell id="Ptq-kPGtWIjx5gkYeYEC-244" value="cash_id" style="shape=partialRectangle;overflow=hidden;connectable=0;fillColor=none;top=0;left=0;bottom=0;right=0;align=left;spacingLeft=6;" parent="1" vertex="1">
          <mxGeometry x="1200" y="1560" width="220" height="30" as="geometry" />
        </mxCell>
        <mxCell id="Ptq-kPGtWIjx5gkYeYEC-245" value="short_desc" style="shape=partialRectangle;overflow=hidden;connectable=0;fillColor=none;top=0;left=0;bottom=0;right=0;align=left;spacingLeft=6;" parent="1" vertex="1">
          <mxGeometry x="1200" y="1580" width="220" height="30" as="geometry" />
        </mxCell>
        <mxCell id="Ptq-kPGtWIjx5gkYeYEC-246" value="description" style="shape=partialRectangle;overflow=hidden;connectable=0;fillColor=none;top=0;left=0;bottom=0;right=0;align=left;spacingLeft=6;" parent="1" vertex="1">
          <mxGeometry x="1200" y="1600" width="220" height="30" as="geometry" />
        </mxCell>
        <mxCell id="Ptq-kPGtWIjx5gkYeYEC-247" value="duration" style="shape=partialRectangle;overflow=hidden;connectable=0;fillColor=none;top=0;left=0;bottom=0;right=0;align=left;spacingLeft=6;" parent="1" vertex="1">
          <mxGeometry x="1200" y="1620" width="220" height="30" as="geometry" />
        </mxCell>
        <mxCell id="Ptq-kPGtWIjx5gkYeYEC-248" value="yorm" style="shape=partialRectangle;overflow=hidden;connectable=0;fillColor=none;top=0;left=0;bottom=0;right=0;align=left;spacingLeft=6;" parent="1" vertex="1">
          <mxGeometry x="1200" y="1640" width="220" height="30" as="geometry" />
        </mxCell>
        <mxCell id="Ptq-kPGtWIjx5gkYeYEC-249" value="quantity" style="shape=partialRectangle;overflow=hidden;connectable=0;fillColor=none;top=0;left=0;bottom=0;right=0;align=left;spacingLeft=6;" parent="1" vertex="1">
          <mxGeometry x="1200" y="1660" width="220" height="30" as="geometry" />
        </mxCell>
        <mxCell id="Ptq-kPGtWIjx5gkYeYEC-250" value="" style="shape=partialRectangle;collapsible=0;dropTarget=0;pointerEvents=0;fillColor=none;points=[[0,0.5],[1,0.5]];portConstraint=eastwest;top=0;left=0;right=0;bottom=0;" parent="1" vertex="1">
          <mxGeometry x="1170" y="1480" width="250" height="30" as="geometry" />
        </mxCell>
        <mxCell id="Ptq-kPGtWIjx5gkYeYEC-251" value="FK" style="shape=partialRectangle;overflow=hidden;connectable=0;fillColor=none;top=0;left=0;bottom=0;right=0;" parent="Ptq-kPGtWIjx5gkYeYEC-250" vertex="1">
          <mxGeometry width="30" height="30" as="geometry" />
        </mxCell>
        <mxCell id="Ptq-kPGtWIjx5gkYeYEC-252" value="entry_person_id" style="shape=partialRectangle;overflow=hidden;connectable=0;fillColor=none;top=0;left=0;bottom=0;right=0;align=left;spacingLeft=6;" parent="Ptq-kPGtWIjx5gkYeYEC-250" vertex="1">
          <mxGeometry x="30" width="220" height="30" as="geometry" />
        </mxCell>
        <mxCell id="Ptq-kPGtWIjx5gkYeYEC-275" style="edgeStyle=orthogonalEdgeStyle;rounded=0;orthogonalLoop=1;jettySize=auto;html=1;exitX=0;exitY=0.5;exitDx=0;exitDy=0;entryX=1;entryY=0.5;entryDx=0;entryDy=0;" parent="1" source="Ptq-kPGtWIjx5gkYeYEC-253" target="Ptq-kPGtWIjx5gkYeYEC-264" edge="1">
          <mxGeometry relative="1" as="geometry">
            <Array as="points">
              <mxPoint x="1170" y="1525" />
            </Array>
          </mxGeometry>
        </mxCell>
        <mxCell id="Ptq-kPGtWIjx5gkYeYEC-253" value="" style="shape=partialRectangle;collapsible=0;dropTarget=0;pointerEvents=0;fillColor=none;points=[[0,0.5],[1,0.5]];portConstraint=eastwest;top=0;left=0;right=0;bottom=0;" parent="1" vertex="1">
          <mxGeometry x="1170" y="1500" width="250" height="30" as="geometry" />
        </mxCell>
        <mxCell id="Ptq-kPGtWIjx5gkYeYEC-254" value="FK" style="shape=partialRectangle;overflow=hidden;connectable=0;fillColor=none;top=0;left=0;bottom=0;right=0;" parent="Ptq-kPGtWIjx5gkYeYEC-253" vertex="1">
          <mxGeometry width="30" height="30" as="geometry" />
        </mxCell>
        <mxCell id="Ptq-kPGtWIjx5gkYeYEC-255" value="product_id" style="shape=partialRectangle;overflow=hidden;connectable=0;fillColor=none;top=0;left=0;bottom=0;right=0;align=left;spacingLeft=6;" parent="Ptq-kPGtWIjx5gkYeYEC-253" vertex="1">
          <mxGeometry x="30" width="220" height="30" as="geometry" />
        </mxCell>
        <mxCell id="Ptq-kPGtWIjx5gkYeYEC-256" value="service_rate" style="shape=partialRectangle;overflow=hidden;connectable=0;fillColor=none;top=0;left=0;bottom=0;right=0;align=left;spacingLeft=6;" parent="1" vertex="1">
          <mxGeometry x="1200" y="1680" width="220" height="30" as="geometry" />
        </mxCell>
        <mxCell id="Ptq-kPGtWIjx5gkYeYEC-257" value="gst" style="shape=partialRectangle;overflow=hidden;connectable=0;fillColor=none;top=0;left=0;bottom=0;right=0;align=left;spacingLeft=6;" parent="1" vertex="1">
          <mxGeometry x="1200" y="1700" width="220" height="30" as="geometry" />
        </mxCell>
        <mxCell id="Ptq-kPGtWIjx5gkYeYEC-258" value="gst_charge" style="shape=partialRectangle;overflow=hidden;connectable=0;fillColor=none;top=0;left=0;bottom=0;right=0;align=left;spacingLeft=6;" parent="1" vertex="1">
          <mxGeometry x="1200" y="1720" width="220" height="30" as="geometry" />
        </mxCell>
        <mxCell id="Ptq-kPGtWIjx5gkYeYEC-259" value="net_amount" style="shape=partialRectangle;overflow=hidden;connectable=0;fillColor=none;top=0;left=0;bottom=0;right=0;align=left;spacingLeft=6;" parent="1" vertex="1">
          <mxGeometry x="1200" y="1740" width="220" height="30" as="geometry" />
        </mxCell>
        <mxCell id="Ptq-kPGtWIjx5gkYeYEC-260" value="total_amount" style="shape=partialRectangle;overflow=hidden;connectable=0;fillColor=none;top=0;left=0;bottom=0;right=0;align=left;spacingLeft=6;" parent="1" vertex="1">
          <mxGeometry x="1200" y="1760" width="220" height="30" as="geometry" />
        </mxCell>
        <mxCell id="Ptq-kPGtWIjx5gkYeYEC-261" value="entry_date" style="shape=partialRectangle;overflow=hidden;connectable=0;fillColor=none;top=0;left=0;bottom=0;right=0;align=left;spacingLeft=6;" parent="1" vertex="1">
          <mxGeometry x="1200" y="1780" width="220" height="30" as="geometry" />
        </mxCell>
        <mxCell id="Ptq-kPGtWIjx5gkYeYEC-262" style="edgeStyle=orthogonalEdgeStyle;rounded=0;orthogonalLoop=1;jettySize=auto;html=1;exitX=0;exitY=0.5;exitDx=0;exitDy=0;entryX=1;entryY=0.5;entryDx=0;entryDy=0;" parent="1" source="Ptq-kPGtWIjx5gkYeYEC-239" target="Ptq-kPGtWIjx5gkYeYEC-189" edge="1">
          <mxGeometry relative="1" as="geometry">
            <Array as="points">
              <mxPoint x="500" y="1435" />
              <mxPoint x="500" y="1485" />
            </Array>
          </mxGeometry>
        </mxCell>
        <mxCell id="Ptq-kPGtWIjx5gkYeYEC-263" value="tbl_product" style="shape=table;startSize=30;container=1;collapsible=1;childLayout=tableLayout;fixedRows=1;rowLines=0;fontStyle=1;align=center;resizeLast=1;" parent="1" vertex="1">
          <mxGeometry x="560" y="1480" width="250" height="240" as="geometry" />
        </mxCell>
        <mxCell id="Ptq-kPGtWIjx5gkYeYEC-264" value="" style="shape=partialRectangle;collapsible=0;dropTarget=0;pointerEvents=0;fillColor=none;points=[[0,0.5],[1,0.5]];portConstraint=eastwest;top=0;left=0;right=0;bottom=1;" parent="Ptq-kPGtWIjx5gkYeYEC-263" vertex="1">
          <mxGeometry y="30" width="250" height="30" as="geometry" />
        </mxCell>
        <mxCell id="Ptq-kPGtWIjx5gkYeYEC-265" value="PK" style="shape=partialRectangle;overflow=hidden;connectable=0;fillColor=none;top=0;left=0;bottom=0;right=0;fontStyle=1;" parent="Ptq-kPGtWIjx5gkYeYEC-264" vertex="1">
          <mxGeometry width="30" height="30" as="geometry" />
        </mxCell>
        <mxCell id="Ptq-kPGtWIjx5gkYeYEC-266" value="product_id" style="shape=partialRectangle;overflow=hidden;connectable=0;fillColor=none;top=0;left=0;bottom=0;right=0;align=left;spacingLeft=6;fontStyle=5;" parent="Ptq-kPGtWIjx5gkYeYEC-264" vertex="1">
          <mxGeometry x="30" width="220" height="30" as="geometry" />
        </mxCell>
        <mxCell id="Ptq-kPGtWIjx5gkYeYEC-267" value="" style="shape=partialRectangle;collapsible=0;dropTarget=0;pointerEvents=0;fillColor=none;points=[[0,0.5],[1,0.5]];portConstraint=eastwest;top=0;left=0;right=0;bottom=0;" parent="Ptq-kPGtWIjx5gkYeYEC-263" vertex="1">
          <mxGeometry y="60" width="250" height="30" as="geometry" />
        </mxCell>
        <mxCell id="Ptq-kPGtWIjx5gkYeYEC-268" value="" style="shape=partialRectangle;overflow=hidden;connectable=0;fillColor=none;top=0;left=0;bottom=0;right=0;" parent="Ptq-kPGtWIjx5gkYeYEC-267" vertex="1">
          <mxGeometry width="30" height="30" as="geometry" />
        </mxCell>
        <mxCell id="Ptq-kPGtWIjx5gkYeYEC-269" value="name" style="shape=partialRectangle;overflow=hidden;connectable=0;fillColor=none;top=0;left=0;bottom=0;right=0;align=left;spacingLeft=6;" parent="Ptq-kPGtWIjx5gkYeYEC-267" vertex="1">
          <mxGeometry x="30" width="220" height="30" as="geometry" />
        </mxCell>
        <mxCell id="Ptq-kPGtWIjx5gkYeYEC-270" value="desc" style="shape=partialRectangle;overflow=hidden;connectable=0;fillColor=none;top=0;left=0;bottom=0;right=0;align=left;spacingLeft=6;" parent="1" vertex="1">
          <mxGeometry x="590" y="1560" width="220" height="30" as="geometry" />
        </mxCell>
        <mxCell id="Ptq-kPGtWIjx5gkYeYEC-271" value="code" style="shape=partialRectangle;overflow=hidden;connectable=0;fillColor=none;top=0;left=0;bottom=0;right=0;align=left;spacingLeft=6;" parent="1" vertex="1">
          <mxGeometry x="590" y="1580" width="220" height="30" as="geometry" />
        </mxCell>
        <mxCell id="Ptq-kPGtWIjx5gkYeYEC-272" value="is_renew" style="shape=partialRectangle;overflow=hidden;connectable=0;fillColor=none;top=0;left=0;bottom=0;right=0;align=left;spacingLeft=6;" parent="1" vertex="1">
          <mxGeometry x="590" y="1600" width="220" height="30" as="geometry" />
        </mxCell>
        <mxCell id="Ptq-kPGtWIjx5gkYeYEC-273" value="gst_rate" style="shape=partialRectangle;overflow=hidden;connectable=0;fillColor=none;top=0;left=0;bottom=0;right=0;align=left;spacingLeft=6;" parent="1" vertex="1">
          <mxGeometry x="590" y="1620" width="220" height="30" as="geometry" />
        </mxCell>
        <mxCell id="Ptq-kPGtWIjx5gkYeYEC-274" value="is_task" style="shape=partialRectangle;overflow=hidden;connectable=0;fillColor=none;top=0;left=0;bottom=0;right=0;align=left;spacingLeft=6;" parent="1" vertex="1">
          <mxGeometry x="590" y="1640" width="220" height="30" as="geometry" />
        </mxCell>
        <mxCell id="Ptq-kPGtWIjx5gkYeYEC-276" value="tbl_service" style="shape=table;startSize=30;container=1;collapsible=1;childLayout=tableLayout;fixedRows=1;rowLines=0;fontStyle=1;align=center;resizeLast=1;" parent="1" vertex="1">
          <mxGeometry x="760" y="720" width="250" height="280" as="geometry" />
        </mxCell>
        <mxCell id="Ptq-kPGtWIjx5gkYeYEC-277" value="" style="shape=partialRectangle;collapsible=0;dropTarget=0;pointerEvents=0;fillColor=none;points=[[0,0.5],[1,0.5]];portConstraint=eastwest;top=0;left=0;right=0;bottom=1;" parent="Ptq-kPGtWIjx5gkYeYEC-276" vertex="1">
          <mxGeometry y="30" width="250" height="30" as="geometry" />
        </mxCell>
        <mxCell id="Ptq-kPGtWIjx5gkYeYEC-278" value="PK" style="shape=partialRectangle;overflow=hidden;connectable=0;fillColor=none;top=0;left=0;bottom=0;right=0;fontStyle=1;" parent="Ptq-kPGtWIjx5gkYeYEC-277" vertex="1">
          <mxGeometry width="30" height="30" as="geometry" />
        </mxCell>
        <mxCell id="Ptq-kPGtWIjx5gkYeYEC-279" value="service_id" style="shape=partialRectangle;overflow=hidden;connectable=0;fillColor=none;top=0;left=0;bottom=0;right=0;align=left;spacingLeft=6;fontStyle=5;" parent="Ptq-kPGtWIjx5gkYeYEC-277" vertex="1">
          <mxGeometry x="30" width="220" height="30" as="geometry" />
        </mxCell>
        <mxCell id="Ptq-kPGtWIjx5gkYeYEC-280" value="" style="shape=partialRectangle;collapsible=0;dropTarget=0;pointerEvents=0;fillColor=none;points=[[0,0.5],[1,0.5]];portConstraint=eastwest;top=0;left=0;right=0;bottom=0;" parent="Ptq-kPGtWIjx5gkYeYEC-276" vertex="1">
          <mxGeometry y="60" width="250" height="30" as="geometry" />
        </mxCell>
        <mxCell id="Ptq-kPGtWIjx5gkYeYEC-281" value="" style="shape=partialRectangle;overflow=hidden;connectable=0;fillColor=none;top=0;left=0;bottom=0;right=0;" parent="Ptq-kPGtWIjx5gkYeYEC-280" vertex="1">
          <mxGeometry width="30" height="30" as="geometry" />
        </mxCell>
        <mxCell id="Ptq-kPGtWIjx5gkYeYEC-282" value="service_name" style="shape=partialRectangle;overflow=hidden;connectable=0;fillColor=none;top=0;left=0;bottom=0;right=0;align=left;spacingLeft=6;" parent="Ptq-kPGtWIjx5gkYeYEC-280" vertex="1">
          <mxGeometry x="30" width="220" height="30" as="geometry" />
        </mxCell>
        <mxCell id="Ptq-kPGtWIjx5gkYeYEC-283" value="description" style="shape=partialRectangle;overflow=hidden;connectable=0;fillColor=none;top=0;left=0;bottom=0;right=0;align=left;spacingLeft=6;" parent="1" vertex="1">
          <mxGeometry x="790" y="800" width="220" height="30" as="geometry" />
        </mxCell>
        <mxCell id="Ptq-kPGtWIjx5gkYeYEC-284" value="service_image" style="shape=partialRectangle;overflow=hidden;connectable=0;fillColor=none;top=0;left=0;bottom=0;right=0;align=left;spacingLeft=6;" parent="1" vertex="1">
          <mxGeometry x="790" y="820" width="220" height="30" as="geometry" />
        </mxCell>
        <mxCell id="Ptq-kPGtWIjx5gkYeYEC-285" value="recordListingID" style="shape=partialRectangle;overflow=hidden;connectable=0;fillColor=none;top=0;left=0;bottom=0;right=0;align=left;spacingLeft=6;" parent="1" vertex="1">
          <mxGeometry x="790" y="840" width="220" height="30" as="geometry" />
        </mxCell>
        <mxCell id="Ptq-kPGtWIjx5gkYeYEC-286" value="meta_tag_title" style="shape=partialRectangle;overflow=hidden;connectable=0;fillColor=none;top=0;left=0;bottom=0;right=0;align=left;spacingLeft=6;" parent="1" vertex="1">
          <mxGeometry x="790" y="860" width="220" height="30" as="geometry" />
        </mxCell>
        <mxCell id="Ptq-kPGtWIjx5gkYeYEC-287" value="meta_tag_description" style="shape=partialRectangle;overflow=hidden;connectable=0;fillColor=none;top=0;left=0;bottom=0;right=0;align=left;spacingLeft=6;" parent="1" vertex="1">
          <mxGeometry x="790" y="880" width="220" height="30" as="geometry" />
        </mxCell>
        <mxCell id="Ptq-kPGtWIjx5gkYeYEC-288" value="meta_tag_keywords" style="shape=partialRectangle;overflow=hidden;connectable=0;fillColor=none;top=0;left=0;bottom=0;right=0;align=left;spacingLeft=6;" parent="1" vertex="1">
          <mxGeometry x="790" y="900" width="220" height="30" as="geometry" />
        </mxCell>
        <mxCell id="Ptq-kPGtWIjx5gkYeYEC-289" value="pdf_file" style="shape=partialRectangle;overflow=hidden;connectable=0;fillColor=none;top=0;left=0;bottom=0;right=0;align=left;spacingLeft=6;" parent="1" vertex="1">
          <mxGeometry x="790" y="920" width="220" height="30" as="geometry" />
        </mxCell>
        <mxCell id="Ptq-kPGtWIjx5gkYeYEC-290" value="multi_images" style="shape=partialRectangle;overflow=hidden;connectable=0;fillColor=none;top=0;left=0;bottom=0;right=0;align=left;spacingLeft=6;" parent="1" vertex="1">
          <mxGeometry x="790" y="945" width="220" height="30" as="geometry" />
        </mxCell>
        <mxCell id="Ptq-kPGtWIjx5gkYeYEC-292" value="slug" style="shape=partialRectangle;overflow=hidden;connectable=0;fillColor=none;top=0;left=0;bottom=0;right=0;align=left;spacingLeft=6;" parent="1" vertex="1">
          <mxGeometry x="790" y="970" width="220" height="30" as="geometry" />
        </mxCell>
        <mxCell id="Ptq-kPGtWIjx5gkYeYEC-293" value="tbl_slider" style="shape=table;startSize=30;container=1;collapsible=1;childLayout=tableLayout;fixedRows=1;rowLines=0;fontStyle=1;align=center;resizeLast=1;" parent="1" vertex="1">
          <mxGeometry x="1040" y="720" width="250" height="260" as="geometry" />
        </mxCell>
        <mxCell id="Ptq-kPGtWIjx5gkYeYEC-294" value="" style="shape=partialRectangle;collapsible=0;dropTarget=0;pointerEvents=0;fillColor=none;points=[[0,0.5],[1,0.5]];portConstraint=eastwest;top=0;left=0;right=0;bottom=1;" parent="Ptq-kPGtWIjx5gkYeYEC-293" vertex="1">
          <mxGeometry y="30" width="250" height="30" as="geometry" />
        </mxCell>
        <mxCell id="Ptq-kPGtWIjx5gkYeYEC-295" value="PK" style="shape=partialRectangle;overflow=hidden;connectable=0;fillColor=none;top=0;left=0;bottom=0;right=0;fontStyle=1;" parent="Ptq-kPGtWIjx5gkYeYEC-294" vertex="1">
          <mxGeometry width="30" height="30" as="geometry" />
        </mxCell>
        <mxCell id="Ptq-kPGtWIjx5gkYeYEC-296" value="slider_id" style="shape=partialRectangle;overflow=hidden;connectable=0;fillColor=none;top=0;left=0;bottom=0;right=0;align=left;spacingLeft=6;fontStyle=5;" parent="Ptq-kPGtWIjx5gkYeYEC-294" vertex="1">
          <mxGeometry x="30" width="220" height="30" as="geometry" />
        </mxCell>
        <mxCell id="Ptq-kPGtWIjx5gkYeYEC-297" value="" style="shape=partialRectangle;collapsible=0;dropTarget=0;pointerEvents=0;fillColor=none;points=[[0,0.5],[1,0.5]];portConstraint=eastwest;top=0;left=0;right=0;bottom=0;" parent="Ptq-kPGtWIjx5gkYeYEC-293" vertex="1">
          <mxGeometry y="60" width="250" height="30" as="geometry" />
        </mxCell>
        <mxCell id="Ptq-kPGtWIjx5gkYeYEC-298" value="" style="shape=partialRectangle;overflow=hidden;connectable=0;fillColor=none;top=0;left=0;bottom=0;right=0;" parent="Ptq-kPGtWIjx5gkYeYEC-297" vertex="1">
          <mxGeometry width="30" height="30" as="geometry" />
        </mxCell>
        <mxCell id="Ptq-kPGtWIjx5gkYeYEC-299" value="image_name" style="shape=partialRectangle;overflow=hidden;connectable=0;fillColor=none;top=0;left=0;bottom=0;right=0;align=left;spacingLeft=6;" parent="Ptq-kPGtWIjx5gkYeYEC-297" vertex="1">
          <mxGeometry x="30" width="220" height="30" as="geometry" />
        </mxCell>
        <mxCell id="Ptq-kPGtWIjx5gkYeYEC-300" value="image_title" style="shape=partialRectangle;overflow=hidden;connectable=0;fillColor=none;top=0;left=0;bottom=0;right=0;align=left;spacingLeft=6;" parent="1" vertex="1">
          <mxGeometry x="1070" y="800" width="220" height="30" as="geometry" />
        </mxCell>
        <mxCell id="Ptq-kPGtWIjx5gkYeYEC-301" value="desc_slider" style="shape=partialRectangle;overflow=hidden;connectable=0;fillColor=none;top=0;left=0;bottom=0;right=0;align=left;spacingLeft=6;" parent="1" vertex="1">
          <mxGeometry x="1070" y="820" width="220" height="30" as="geometry" />
        </mxCell>
        <mxCell id="Ptq-kPGtWIjx5gkYeYEC-302" value="recordListingID" style="shape=partialRectangle;overflow=hidden;connectable=0;fillColor=none;top=0;left=0;bottom=0;right=0;align=left;spacingLeft=6;" parent="1" vertex="1">
          <mxGeometry x="1070" y="840" width="220" height="30" as="geometry" />
        </mxCell>
        <mxCell id="Ptq-kPGtWIjx5gkYeYEC-303" value="meta_tag_title" style="shape=partialRectangle;overflow=hidden;connectable=0;fillColor=none;top=0;left=0;bottom=0;right=0;align=left;spacingLeft=6;" parent="1" vertex="1">
          <mxGeometry x="1070" y="860" width="220" height="30" as="geometry" />
        </mxCell>
        <mxCell id="Ptq-kPGtWIjx5gkYeYEC-304" value="meta_tag_description" style="shape=partialRectangle;overflow=hidden;connectable=0;fillColor=none;top=0;left=0;bottom=0;right=0;align=left;spacingLeft=6;" parent="1" vertex="1">
          <mxGeometry x="1070" y="880" width="220" height="30" as="geometry" />
        </mxCell>
        <mxCell id="Ptq-kPGtWIjx5gkYeYEC-305" value="meta_tag_keywords" style="shape=partialRectangle;overflow=hidden;connectable=0;fillColor=none;top=0;left=0;bottom=0;right=0;align=left;spacingLeft=6;" parent="1" vertex="1">
          <mxGeometry x="1070" y="900" width="220" height="30" as="geometry" />
        </mxCell>
        <mxCell id="Ptq-kPGtWIjx5gkYeYEC-308" value="slug" style="shape=partialRectangle;overflow=hidden;connectable=0;fillColor=none;top=0;left=0;bottom=0;right=0;align=left;spacingLeft=6;" parent="1" vertex="1">
          <mxGeometry x="1070" y="920" width="220" height="30" as="geometry" />
        </mxCell>
        <mxCell id="Ptq-kPGtWIjx5gkYeYEC-309" value="link_url" style="shape=partialRectangle;overflow=hidden;connectable=0;fillColor=none;top=0;left=0;bottom=0;right=0;align=left;spacingLeft=6;" parent="1" vertex="1">
          <mxGeometry x="1070" y="940" width="220" height="30" as="geometry" />
        </mxCell>
        <mxCell id="Ptq-kPGtWIjx5gkYeYEC-310" value="tbl_socialmedia" style="shape=table;startSize=30;container=1;collapsible=1;childLayout=tableLayout;fixedRows=1;rowLines=0;fontStyle=1;align=center;resizeLast=1;" parent="1" vertex="1">
          <mxGeometry x="1320" y="720" width="250" height="170" as="geometry" />
        </mxCell>
        <mxCell id="Ptq-kPGtWIjx5gkYeYEC-311" value="" style="shape=partialRectangle;collapsible=0;dropTarget=0;pointerEvents=0;fillColor=none;points=[[0,0.5],[1,0.5]];portConstraint=eastwest;top=0;left=0;right=0;bottom=1;" parent="Ptq-kPGtWIjx5gkYeYEC-310" vertex="1">
          <mxGeometry y="30" width="250" height="30" as="geometry" />
        </mxCell>
        <mxCell id="Ptq-kPGtWIjx5gkYeYEC-312" value="PK" style="shape=partialRectangle;overflow=hidden;connectable=0;fillColor=none;top=0;left=0;bottom=0;right=0;fontStyle=1;" parent="Ptq-kPGtWIjx5gkYeYEC-311" vertex="1">
          <mxGeometry width="30" height="30" as="geometry" />
        </mxCell>
        <mxCell id="Ptq-kPGtWIjx5gkYeYEC-313" value="social_id" style="shape=partialRectangle;overflow=hidden;connectable=0;fillColor=none;top=0;left=0;bottom=0;right=0;align=left;spacingLeft=6;fontStyle=5;" parent="Ptq-kPGtWIjx5gkYeYEC-311" vertex="1">
          <mxGeometry x="30" width="220" height="30" as="geometry" />
        </mxCell>
        <mxCell id="Ptq-kPGtWIjx5gkYeYEC-314" value="" style="shape=partialRectangle;collapsible=0;dropTarget=0;pointerEvents=0;fillColor=none;points=[[0,0.5],[1,0.5]];portConstraint=eastwest;top=0;left=0;right=0;bottom=0;" parent="Ptq-kPGtWIjx5gkYeYEC-310" vertex="1">
          <mxGeometry y="60" width="250" height="30" as="geometry" />
        </mxCell>
        <mxCell id="Ptq-kPGtWIjx5gkYeYEC-315" value="" style="shape=partialRectangle;overflow=hidden;connectable=0;fillColor=none;top=0;left=0;bottom=0;right=0;" parent="Ptq-kPGtWIjx5gkYeYEC-314" vertex="1">
          <mxGeometry width="30" height="30" as="geometry" />
        </mxCell>
        <mxCell id="Ptq-kPGtWIjx5gkYeYEC-316" value="image_name" style="shape=partialRectangle;overflow=hidden;connectable=0;fillColor=none;top=0;left=0;bottom=0;right=0;align=left;spacingLeft=6;" parent="Ptq-kPGtWIjx5gkYeYEC-314" vertex="1">
          <mxGeometry x="30" width="220" height="30" as="geometry" />
        </mxCell>
        <mxCell id="Ptq-kPGtWIjx5gkYeYEC-317" value="social_title" style="shape=partialRectangle;overflow=hidden;connectable=0;fillColor=none;top=0;left=0;bottom=0;right=0;align=left;spacingLeft=6;" parent="1" vertex="1">
          <mxGeometry x="1350" y="800" width="220" height="30" as="geometry" />
        </mxCell>
        <mxCell id="Ptq-kPGtWIjx5gkYeYEC-318" value="description" style="shape=partialRectangle;overflow=hidden;connectable=0;fillColor=none;top=0;left=0;bottom=0;right=0;align=left;spacingLeft=6;" parent="1" vertex="1">
          <mxGeometry x="1350" y="820" width="220" height="30" as="geometry" />
        </mxCell>
        <mxCell id="Ptq-kPGtWIjx5gkYeYEC-319" value="recordListingID" style="shape=partialRectangle;overflow=hidden;connectable=0;fillColor=none;top=0;left=0;bottom=0;right=0;align=left;spacingLeft=6;" parent="1" vertex="1">
          <mxGeometry x="1350" y="840" width="220" height="30" as="geometry" />
        </mxCell>
        <mxCell id="Ptq-kPGtWIjx5gkYeYEC-324" value="link_url" style="shape=partialRectangle;overflow=hidden;connectable=0;fillColor=none;top=0;left=0;bottom=0;right=0;align=left;spacingLeft=6;" parent="1" vertex="1">
          <mxGeometry x="1350" y="860" width="220" height="30" as="geometry" />
        </mxCell>
        <mxCell id="Ptq-kPGtWIjx5gkYeYEC-325" value="tbl_sub_product" style="shape=table;startSize=30;container=1;collapsible=1;childLayout=tableLayout;fixedRows=1;rowLines=0;fontStyle=1;align=center;resizeLast=1;" parent="1" vertex="1">
          <mxGeometry x="880" y="1640" width="250" height="130" as="geometry" />
        </mxCell>
        <mxCell id="Ptq-kPGtWIjx5gkYeYEC-326" value="" style="shape=partialRectangle;collapsible=0;dropTarget=0;pointerEvents=0;fillColor=none;points=[[0,0.5],[1,0.5]];portConstraint=eastwest;top=0;left=0;right=0;bottom=1;" parent="Ptq-kPGtWIjx5gkYeYEC-325" vertex="1">
          <mxGeometry y="30" width="250" height="30" as="geometry" />
        </mxCell>
        <mxCell id="Ptq-kPGtWIjx5gkYeYEC-327" value="PK" style="shape=partialRectangle;overflow=hidden;connectable=0;fillColor=none;top=0;left=0;bottom=0;right=0;fontStyle=1;" parent="Ptq-kPGtWIjx5gkYeYEC-326" vertex="1">
          <mxGeometry width="30" height="30" as="geometry" />
        </mxCell>
        <mxCell id="Ptq-kPGtWIjx5gkYeYEC-328" value="sub_product_id" style="shape=partialRectangle;overflow=hidden;connectable=0;fillColor=none;top=0;left=0;bottom=0;right=0;align=left;spacingLeft=6;fontStyle=5;" parent="Ptq-kPGtWIjx5gkYeYEC-326" vertex="1">
          <mxGeometry x="30" width="220" height="30" as="geometry" />
        </mxCell>
        <mxCell id="Ptq-kPGtWIjx5gkYeYEC-329" value="" style="shape=partialRectangle;collapsible=0;dropTarget=0;pointerEvents=0;fillColor=none;points=[[0,0.5],[1,0.5]];portConstraint=eastwest;top=0;left=0;right=0;bottom=0;" parent="Ptq-kPGtWIjx5gkYeYEC-325" vertex="1">
          <mxGeometry y="60" width="250" height="30" as="geometry" />
        </mxCell>
        <mxCell id="Ptq-kPGtWIjx5gkYeYEC-330" value="" style="shape=partialRectangle;overflow=hidden;connectable=0;fillColor=none;top=0;left=0;bottom=0;right=0;" parent="Ptq-kPGtWIjx5gkYeYEC-329" vertex="1">
          <mxGeometry width="30" height="30" as="geometry" />
        </mxCell>
        <mxCell id="Ptq-kPGtWIjx5gkYeYEC-331" value="product_id" style="shape=partialRectangle;overflow=hidden;connectable=0;fillColor=none;top=0;left=0;bottom=0;right=0;align=left;spacingLeft=6;" parent="Ptq-kPGtWIjx5gkYeYEC-329" vertex="1">
          <mxGeometry x="30" width="220" height="30" as="geometry" />
        </mxCell>
        <mxCell id="Ptq-kPGtWIjx5gkYeYEC-332" value="sub_product_name" style="shape=partialRectangle;overflow=hidden;connectable=0;fillColor=none;top=0;left=0;bottom=0;right=0;align=left;spacingLeft=6;" parent="1" vertex="1">
          <mxGeometry x="910" y="1720" width="220" height="30" as="geometry" />
        </mxCell>
        <mxCell id="Ptq-kPGtWIjx5gkYeYEC-333" value="description" style="shape=partialRectangle;overflow=hidden;connectable=0;fillColor=none;top=0;left=0;bottom=0;right=0;align=left;spacingLeft=6;" parent="1" vertex="1">
          <mxGeometry x="910" y="1740" width="220" height="30" as="geometry" />
        </mxCell>
        <mxCell id="Ptq-kPGtWIjx5gkYeYEC-337" style="edgeStyle=orthogonalEdgeStyle;rounded=0;orthogonalLoop=1;jettySize=auto;html=1;exitX=0;exitY=0.5;exitDx=0;exitDy=0;entryX=1;entryY=0.5;entryDx=0;entryDy=0;" parent="1" source="Ptq-kPGtWIjx5gkYeYEC-329" target="Ptq-kPGtWIjx5gkYeYEC-264" edge="1">
          <mxGeometry relative="1" as="geometry">
            <Array as="points">
              <mxPoint x="845" y="1715" />
              <mxPoint x="845" y="1525" />
            </Array>
          </mxGeometry>
        </mxCell>
        <mxCell id="oZx9LvJfd-q3sRP_gs2j-1" value="tbl_task" style="shape=table;startSize=30;container=1;collapsible=1;childLayout=tableLayout;fixedRows=1;rowLines=0;fontStyle=1;align=center;resizeLast=1;" vertex="1" parent="1">
          <mxGeometry x="1480" y="1880" width="250" height="320" as="geometry" />
        </mxCell>
        <mxCell id="oZx9LvJfd-q3sRP_gs2j-2" value="" style="shape=partialRectangle;collapsible=0;dropTarget=0;pointerEvents=0;fillColor=none;points=[[0,0.5],[1,0.5]];portConstraint=eastwest;top=0;left=0;right=0;bottom=1;" vertex="1" parent="oZx9LvJfd-q3sRP_gs2j-1">
          <mxGeometry y="30" width="250" height="30" as="geometry" />
        </mxCell>
        <mxCell id="oZx9LvJfd-q3sRP_gs2j-3" value="PK" style="shape=partialRectangle;overflow=hidden;connectable=0;fillColor=none;top=0;left=0;bottom=0;right=0;fontStyle=1;" vertex="1" parent="oZx9LvJfd-q3sRP_gs2j-2">
          <mxGeometry width="30" height="30" as="geometry" />
        </mxCell>
        <mxCell id="oZx9LvJfd-q3sRP_gs2j-4" value="task_id" style="shape=partialRectangle;overflow=hidden;connectable=0;fillColor=none;top=0;left=0;bottom=0;right=0;align=left;spacingLeft=6;fontStyle=5;" vertex="1" parent="oZx9LvJfd-q3sRP_gs2j-2">
          <mxGeometry x="30" width="220" height="30" as="geometry" />
        </mxCell>
        <mxCell id="oZx9LvJfd-q3sRP_gs2j-5" value="" style="shape=partialRectangle;collapsible=0;dropTarget=0;pointerEvents=0;fillColor=none;points=[[0,0.5],[1,0.5]];portConstraint=eastwest;top=0;left=0;right=0;bottom=0;" vertex="1" parent="oZx9LvJfd-q3sRP_gs2j-1">
          <mxGeometry y="60" width="250" height="30" as="geometry" />
        </mxCell>
        <mxCell id="oZx9LvJfd-q3sRP_gs2j-6" value="FK" style="shape=partialRectangle;overflow=hidden;connectable=0;fillColor=none;top=0;left=0;bottom=0;right=0;" vertex="1" parent="oZx9LvJfd-q3sRP_gs2j-5">
          <mxGeometry width="30" height="30" as="geometry" />
        </mxCell>
        <mxCell id="oZx9LvJfd-q3sRP_gs2j-7" value="service_inclusion_id" style="shape=partialRectangle;overflow=hidden;connectable=0;fillColor=none;top=0;left=0;bottom=0;right=0;align=left;spacingLeft=6;" vertex="1" parent="oZx9LvJfd-q3sRP_gs2j-5">
          <mxGeometry x="30" width="220" height="30" as="geometry" />
        </mxCell>
        <mxCell id="oZx9LvJfd-q3sRP_gs2j-8" value="task_name" style="shape=partialRectangle;overflow=hidden;connectable=0;fillColor=none;top=0;left=0;bottom=0;right=0;align=left;spacingLeft=6;" vertex="1" parent="1">
          <mxGeometry x="1510" y="2000" width="220" height="30" as="geometry" />
        </mxCell>
        <mxCell id="oZx9LvJfd-q3sRP_gs2j-9" value="task_quantity" style="shape=partialRectangle;overflow=hidden;connectable=0;fillColor=none;top=0;left=0;bottom=0;right=0;align=left;spacingLeft=6;" vertex="1" parent="1">
          <mxGeometry x="1510" y="2020" width="220" height="30" as="geometry" />
        </mxCell>
        <mxCell id="oZx9LvJfd-q3sRP_gs2j-10" value="task_quantity_assigned" style="shape=partialRectangle;overflow=hidden;connectable=0;fillColor=none;top=0;left=0;bottom=0;right=0;align=left;spacingLeft=6;" vertex="1" parent="1">
          <mxGeometry x="1510" y="2040" width="220" height="30" as="geometry" />
        </mxCell>
        <mxCell id="oZx9LvJfd-q3sRP_gs2j-11" value="task_description" style="shape=partialRectangle;overflow=hidden;connectable=0;fillColor=none;top=0;left=0;bottom=0;right=0;align=left;spacingLeft=6;" vertex="1" parent="1">
          <mxGeometry x="1510" y="2060" width="220" height="30" as="geometry" />
        </mxCell>
        <mxCell id="oZx9LvJfd-q3sRP_gs2j-12" value="task_date" style="shape=partialRectangle;overflow=hidden;connectable=0;fillColor=none;top=0;left=0;bottom=0;right=0;align=left;spacingLeft=6;" vertex="1" parent="1">
          <mxGeometry x="1510" y="2080" width="220" height="30" as="geometry" />
        </mxCell>
        <mxCell id="oZx9LvJfd-q3sRP_gs2j-13" value="recordListingID" style="shape=partialRectangle;overflow=hidden;connectable=0;fillColor=none;top=0;left=0;bottom=0;right=0;align=left;spacingLeft=6;" vertex="1" parent="1">
          <mxGeometry x="1510" y="2100" width="220" height="30" as="geometry" />
        </mxCell>
        <mxCell id="oZx9LvJfd-q3sRP_gs2j-14" value="task_status" style="shape=partialRectangle;overflow=hidden;connectable=0;fillColor=none;top=0;left=0;bottom=0;right=0;align=left;spacingLeft=6;" vertex="1" parent="1">
          <mxGeometry x="1510" y="2120" width="220" height="30" as="geometry" />
        </mxCell>
        <mxCell id="oZx9LvJfd-q3sRP_gs2j-15" value="quantity" style="shape=partialRectangle;overflow=hidden;connectable=0;fillColor=none;top=0;left=0;bottom=0;right=0;align=left;spacingLeft=6;" vertex="1" parent="1">
          <mxGeometry x="1510" y="2140" width="220" height="30" as="geometry" />
        </mxCell>
        <mxCell id="oZx9LvJfd-q3sRP_gs2j-81" style="edgeStyle=orthogonalEdgeStyle;rounded=0;orthogonalLoop=1;jettySize=auto;html=1;exitX=0;exitY=0.5;exitDx=0;exitDy=0;entryX=0;entryY=0.5;entryDx=0;entryDy=0;" edge="1" parent="1" source="oZx9LvJfd-q3sRP_gs2j-16" target="Ptq-kPGtWIjx5gkYeYEC-85">
          <mxGeometry relative="1" as="geometry">
            <Array as="points">
              <mxPoint x="-190" y="1975" />
              <mxPoint x="-190" y="1205" />
            </Array>
          </mxGeometry>
        </mxCell>
        <mxCell id="oZx9LvJfd-q3sRP_gs2j-16" value="" style="shape=partialRectangle;collapsible=0;dropTarget=0;pointerEvents=0;fillColor=none;points=[[0,0.5],[1,0.5]];portConstraint=eastwest;top=0;left=0;right=0;bottom=0;" vertex="1" parent="1">
          <mxGeometry x="1480" y="1960" width="250" height="30" as="geometry" />
        </mxCell>
        <mxCell id="oZx9LvJfd-q3sRP_gs2j-17" value="FK" style="shape=partialRectangle;overflow=hidden;connectable=0;fillColor=none;top=0;left=0;bottom=0;right=0;" vertex="1" parent="oZx9LvJfd-q3sRP_gs2j-16">
          <mxGeometry width="30" height="30" as="geometry" />
        </mxCell>
        <mxCell id="oZx9LvJfd-q3sRP_gs2j-18" value="client_id" style="shape=partialRectangle;overflow=hidden;connectable=0;fillColor=none;top=0;left=0;bottom=0;right=0;align=left;spacingLeft=6;" vertex="1" parent="oZx9LvJfd-q3sRP_gs2j-16">
          <mxGeometry x="30" width="220" height="30" as="geometry" />
        </mxCell>
        <mxCell id="oZx9LvJfd-q3sRP_gs2j-19" value="" style="shape=partialRectangle;collapsible=0;dropTarget=0;pointerEvents=0;fillColor=none;points=[[0,0.5],[1,0.5]];portConstraint=eastwest;top=0;left=0;right=0;bottom=0;" vertex="1" parent="1">
          <mxGeometry x="1480" y="1980" width="250" height="30" as="geometry" />
        </mxCell>
        <mxCell id="oZx9LvJfd-q3sRP_gs2j-20" value="" style="shape=partialRectangle;overflow=hidden;connectable=0;fillColor=none;top=0;left=0;bottom=0;right=0;" vertex="1" parent="oZx9LvJfd-q3sRP_gs2j-19">
          <mxGeometry width="30" height="30" as="geometry" />
        </mxCell>
        <mxCell id="oZx9LvJfd-q3sRP_gs2j-21" value="client_name" style="shape=partialRectangle;overflow=hidden;connectable=0;fillColor=none;top=0;left=0;bottom=0;right=0;align=left;spacingLeft=6;" vertex="1" parent="oZx9LvJfd-q3sRP_gs2j-19">
          <mxGeometry x="30" width="220" height="30" as="geometry" />
        </mxCell>
        <mxCell id="oZx9LvJfd-q3sRP_gs2j-22" value="isFromServiceConfirmation" style="shape=partialRectangle;overflow=hidden;connectable=0;fillColor=none;top=0;left=0;bottom=0;right=0;align=left;spacingLeft=6;" vertex="1" parent="1">
          <mxGeometry x="1510" y="2160" width="220" height="30" as="geometry" />
        </mxCell>
        <mxCell id="oZx9LvJfd-q3sRP_gs2j-29" style="edgeStyle=orthogonalEdgeStyle;rounded=0;orthogonalLoop=1;jettySize=auto;html=1;exitX=0;exitY=0.5;exitDx=0;exitDy=0;entryX=1;entryY=0.5;entryDx=0;entryDy=0;" edge="1" parent="1" source="oZx9LvJfd-q3sRP_gs2j-5" target="Ptq-kPGtWIjx5gkYeYEC-236">
          <mxGeometry relative="1" as="geometry" />
        </mxCell>
        <mxCell id="oZx9LvJfd-q3sRP_gs2j-30" value="task_emp_id" style="shape=table;startSize=30;container=1;collapsible=1;childLayout=tableLayout;fixedRows=1;rowLines=0;fontStyle=1;align=center;resizeLast=1;" vertex="1" parent="1">
          <mxGeometry x="1800" y="1880" width="250" height="390" as="geometry" />
        </mxCell>
        <mxCell id="oZx9LvJfd-q3sRP_gs2j-31" value="" style="shape=partialRectangle;collapsible=0;dropTarget=0;pointerEvents=0;fillColor=none;points=[[0,0.5],[1,0.5]];portConstraint=eastwest;top=0;left=0;right=0;bottom=1;" vertex="1" parent="oZx9LvJfd-q3sRP_gs2j-30">
          <mxGeometry y="30" width="250" height="30" as="geometry" />
        </mxCell>
        <mxCell id="oZx9LvJfd-q3sRP_gs2j-32" value="PK" style="shape=partialRectangle;overflow=hidden;connectable=0;fillColor=none;top=0;left=0;bottom=0;right=0;fontStyle=1;" vertex="1" parent="oZx9LvJfd-q3sRP_gs2j-31">
          <mxGeometry width="30" height="30" as="geometry" />
        </mxCell>
        <mxCell id="oZx9LvJfd-q3sRP_gs2j-33" value="task_emp_id" style="shape=partialRectangle;overflow=hidden;connectable=0;fillColor=none;top=0;left=0;bottom=0;right=0;align=left;spacingLeft=6;fontStyle=5;" vertex="1" parent="oZx9LvJfd-q3sRP_gs2j-31">
          <mxGeometry x="30" width="220" height="30" as="geometry" />
        </mxCell>
        <mxCell id="oZx9LvJfd-q3sRP_gs2j-34" value="" style="shape=partialRectangle;collapsible=0;dropTarget=0;pointerEvents=0;fillColor=none;points=[[0,0.5],[1,0.5]];portConstraint=eastwest;top=0;left=0;right=0;bottom=0;" vertex="1" parent="oZx9LvJfd-q3sRP_gs2j-30">
          <mxGeometry y="60" width="250" height="30" as="geometry" />
        </mxCell>
        <mxCell id="oZx9LvJfd-q3sRP_gs2j-35" value="FK" style="shape=partialRectangle;overflow=hidden;connectable=0;fillColor=none;top=0;left=0;bottom=0;right=0;" vertex="1" parent="oZx9LvJfd-q3sRP_gs2j-34">
          <mxGeometry width="30" height="30" as="geometry" />
        </mxCell>
        <mxCell id="oZx9LvJfd-q3sRP_gs2j-36" value="task_id" style="shape=partialRectangle;overflow=hidden;connectable=0;fillColor=none;top=0;left=0;bottom=0;right=0;align=left;spacingLeft=6;" vertex="1" parent="oZx9LvJfd-q3sRP_gs2j-34">
          <mxGeometry x="30" width="220" height="30" as="geometry" />
        </mxCell>
        <mxCell id="oZx9LvJfd-q3sRP_gs2j-37" value="task_emp_quantity_done" style="shape=partialRectangle;overflow=hidden;connectable=0;fillColor=none;top=0;left=0;bottom=0;right=0;align=left;spacingLeft=6;" vertex="1" parent="1">
          <mxGeometry x="1830" y="2000" width="220" height="30" as="geometry" />
        </mxCell>
        <mxCell id="oZx9LvJfd-q3sRP_gs2j-38" value="task_emp_repetation_duration" style="shape=partialRectangle;overflow=hidden;connectable=0;fillColor=none;top=0;left=0;bottom=0;right=0;align=left;spacingLeft=6;" vertex="1" parent="1">
          <mxGeometry x="1830" y="2020" width="220" height="30" as="geometry" />
        </mxCell>
        <mxCell id="oZx9LvJfd-q3sRP_gs2j-39" value="task_emp_description" style="shape=partialRectangle;overflow=hidden;connectable=0;fillColor=none;top=0;left=0;bottom=0;right=0;align=left;spacingLeft=6;" vertex="1" parent="1">
          <mxGeometry x="1830" y="2040" width="220" height="30" as="geometry" />
        </mxCell>
        <mxCell id="oZx9LvJfd-q3sRP_gs2j-40" value="date_assign" style="shape=partialRectangle;overflow=hidden;connectable=0;fillColor=none;top=0;left=0;bottom=0;right=0;align=left;spacingLeft=6;" vertex="1" parent="1">
          <mxGeometry x="1830" y="2060" width="220" height="30" as="geometry" />
        </mxCell>
        <mxCell id="oZx9LvJfd-q3sRP_gs2j-41" value="date_accept" style="shape=partialRectangle;overflow=hidden;connectable=0;fillColor=none;top=0;left=0;bottom=0;right=0;align=left;spacingLeft=6;" vertex="1" parent="1">
          <mxGeometry x="1830" y="2080" width="220" height="30" as="geometry" />
        </mxCell>
        <mxCell id="oZx9LvJfd-q3sRP_gs2j-42" value="date_session_start" style="shape=partialRectangle;overflow=hidden;connectable=0;fillColor=none;top=0;left=0;bottom=0;right=0;align=left;spacingLeft=6;" vertex="1" parent="1">
          <mxGeometry x="1830" y="2100" width="220" height="30" as="geometry" />
        </mxCell>
        <mxCell id="oZx9LvJfd-q3sRP_gs2j-43" value="date_session_end" style="shape=partialRectangle;overflow=hidden;connectable=0;fillColor=none;top=0;left=0;bottom=0;right=0;align=left;spacingLeft=6;" vertex="1" parent="1">
          <mxGeometry x="1830" y="2120" width="220" height="30" as="geometry" />
        </mxCell>
        <mxCell id="oZx9LvJfd-q3sRP_gs2j-44" value="date_submit" style="shape=partialRectangle;overflow=hidden;connectable=0;fillColor=none;top=0;left=0;bottom=0;right=0;align=left;spacingLeft=6;" vertex="1" parent="1">
          <mxGeometry x="1830" y="2140" width="220" height="30" as="geometry" />
        </mxCell>
        <mxCell id="oZx9LvJfd-q3sRP_gs2j-80" style="edgeStyle=orthogonalEdgeStyle;rounded=0;orthogonalLoop=1;jettySize=auto;html=1;exitX=0;exitY=0.5;exitDx=0;exitDy=0;entryX=1;entryY=0.5;entryDx=0;entryDy=0;" edge="1" parent="1" source="oZx9LvJfd-q3sRP_gs2j-45" target="oZx9LvJfd-q3sRP_gs2j-59">
          <mxGeometry relative="1" as="geometry" />
        </mxCell>
        <mxCell id="oZx9LvJfd-q3sRP_gs2j-45" value="" style="shape=partialRectangle;collapsible=0;dropTarget=0;pointerEvents=0;fillColor=none;points=[[0,0.5],[1,0.5]];portConstraint=eastwest;top=0;left=0;right=0;bottom=0;" vertex="1" parent="1">
          <mxGeometry x="1800" y="1960" width="250" height="30" as="geometry" />
        </mxCell>
        <mxCell id="oZx9LvJfd-q3sRP_gs2j-46" value="FK" style="shape=partialRectangle;overflow=hidden;connectable=0;fillColor=none;top=0;left=0;bottom=0;right=0;" vertex="1" parent="oZx9LvJfd-q3sRP_gs2j-45">
          <mxGeometry width="30" height="30" as="geometry" />
        </mxCell>
        <mxCell id="oZx9LvJfd-q3sRP_gs2j-47" value="user_id" style="shape=partialRectangle;overflow=hidden;connectable=0;fillColor=none;top=0;left=0;bottom=0;right=0;align=left;spacingLeft=6;" vertex="1" parent="oZx9LvJfd-q3sRP_gs2j-45">
          <mxGeometry x="30" width="220" height="30" as="geometry" />
        </mxCell>
        <mxCell id="oZx9LvJfd-q3sRP_gs2j-48" value="" style="shape=partialRectangle;collapsible=0;dropTarget=0;pointerEvents=0;fillColor=none;points=[[0,0.5],[1,0.5]];portConstraint=eastwest;top=0;left=0;right=0;bottom=0;" vertex="1" parent="1">
          <mxGeometry x="1800" y="1980" width="250" height="30" as="geometry" />
        </mxCell>
        <mxCell id="oZx9LvJfd-q3sRP_gs2j-49" value="FK" style="shape=partialRectangle;overflow=hidden;connectable=0;fillColor=none;top=0;left=0;bottom=0;right=0;" vertex="1" parent="oZx9LvJfd-q3sRP_gs2j-48">
          <mxGeometry width="30" height="30" as="geometry" />
        </mxCell>
        <mxCell id="oZx9LvJfd-q3sRP_gs2j-50" value="task_emp_quantity" style="shape=partialRectangle;overflow=hidden;connectable=0;fillColor=none;top=0;left=0;bottom=0;right=0;align=left;spacingLeft=6;" vertex="1" parent="oZx9LvJfd-q3sRP_gs2j-48">
          <mxGeometry x="30" width="220" height="30" as="geometry" />
        </mxCell>
        <mxCell id="oZx9LvJfd-q3sRP_gs2j-51" value="task_emp_duration" style="shape=partialRectangle;overflow=hidden;connectable=0;fillColor=none;top=0;left=0;bottom=0;right=0;align=left;spacingLeft=6;" vertex="1" parent="1">
          <mxGeometry x="1830" y="2160" width="220" height="30" as="geometry" />
        </mxCell>
        <mxCell id="oZx9LvJfd-q3sRP_gs2j-52" value="task_emp_status" style="shape=partialRectangle;overflow=hidden;connectable=0;fillColor=none;top=0;left=0;bottom=0;right=0;align=left;spacingLeft=6;" vertex="1" parent="1">
          <mxGeometry x="1830" y="2180" width="220" height="30" as="geometry" />
        </mxCell>
        <mxCell id="oZx9LvJfd-q3sRP_gs2j-53" value="task_emp_running_status" style="shape=partialRectangle;overflow=hidden;connectable=0;fillColor=none;top=0;left=0;bottom=0;right=0;align=left;spacingLeft=6;" vertex="1" parent="1">
          <mxGeometry x="1830" y="2200" width="220" height="30" as="geometry" />
        </mxCell>
        <mxCell id="oZx9LvJfd-q3sRP_gs2j-54" value="task_emp_expected_time" style="shape=partialRectangle;overflow=hidden;connectable=0;fillColor=none;top=0;left=0;bottom=0;right=0;align=left;spacingLeft=6;" vertex="1" parent="1">
          <mxGeometry x="1830" y="2220" width="220" height="30" as="geometry" />
        </mxCell>
        <mxCell id="oZx9LvJfd-q3sRP_gs2j-55" value="recordListingID" style="shape=partialRectangle;overflow=hidden;connectable=0;fillColor=none;top=0;left=0;bottom=0;right=0;align=left;spacingLeft=6;" vertex="1" parent="1">
          <mxGeometry x="1830" y="2240" width="220" height="30" as="geometry" />
        </mxCell>
        <mxCell id="oZx9LvJfd-q3sRP_gs2j-56" style="edgeStyle=orthogonalEdgeStyle;rounded=0;orthogonalLoop=1;jettySize=auto;html=1;exitX=0;exitY=0.5;exitDx=0;exitDy=0;entryX=1;entryY=0.5;entryDx=0;entryDy=0;" edge="1" parent="1" source="oZx9LvJfd-q3sRP_gs2j-34" target="oZx9LvJfd-q3sRP_gs2j-2">
          <mxGeometry relative="1" as="geometry" />
        </mxCell>
        <mxCell id="oZx9LvJfd-q3sRP_gs2j-58" value="tbl_user" style="shape=table;startSize=30;container=1;collapsible=1;childLayout=tableLayout;fixedRows=1;rowLines=0;fontStyle=1;align=center;resizeLast=1;" vertex="1" parent="1">
          <mxGeometry x="1480" y="2280" width="250" height="260" as="geometry" />
        </mxCell>
        <mxCell id="oZx9LvJfd-q3sRP_gs2j-59" value="" style="shape=partialRectangle;collapsible=0;dropTarget=0;pointerEvents=0;fillColor=none;points=[[0,0.5],[1,0.5]];portConstraint=eastwest;top=0;left=0;right=0;bottom=1;" vertex="1" parent="oZx9LvJfd-q3sRP_gs2j-58">
          <mxGeometry y="30" width="250" height="30" as="geometry" />
        </mxCell>
        <mxCell id="oZx9LvJfd-q3sRP_gs2j-60" value="PK" style="shape=partialRectangle;overflow=hidden;connectable=0;fillColor=none;top=0;left=0;bottom=0;right=0;fontStyle=1;" vertex="1" parent="oZx9LvJfd-q3sRP_gs2j-59">
          <mxGeometry width="30" height="30" as="geometry" />
        </mxCell>
        <mxCell id="oZx9LvJfd-q3sRP_gs2j-61" value="user_id" style="shape=partialRectangle;overflow=hidden;connectable=0;fillColor=none;top=0;left=0;bottom=0;right=0;align=left;spacingLeft=6;fontStyle=5;" vertex="1" parent="oZx9LvJfd-q3sRP_gs2j-59">
          <mxGeometry x="30" width="220" height="30" as="geometry" />
        </mxCell>
        <mxCell id="oZx9LvJfd-q3sRP_gs2j-62" value="" style="shape=partialRectangle;collapsible=0;dropTarget=0;pointerEvents=0;fillColor=none;points=[[0,0.5],[1,0.5]];portConstraint=eastwest;top=0;left=0;right=0;bottom=0;" vertex="1" parent="oZx9LvJfd-q3sRP_gs2j-58">
          <mxGeometry y="60" width="250" height="30" as="geometry" />
        </mxCell>
        <mxCell id="oZx9LvJfd-q3sRP_gs2j-63" value="FK" style="shape=partialRectangle;overflow=hidden;connectable=0;fillColor=none;top=0;left=0;bottom=0;right=0;" vertex="1" parent="oZx9LvJfd-q3sRP_gs2j-62">
          <mxGeometry width="30" height="30" as="geometry" />
        </mxCell>
        <mxCell id="oZx9LvJfd-q3sRP_gs2j-64" value="role_id" style="shape=partialRectangle;overflow=hidden;connectable=0;fillColor=none;top=0;left=0;bottom=0;right=0;align=left;spacingLeft=6;" vertex="1" parent="oZx9LvJfd-q3sRP_gs2j-62">
          <mxGeometry x="30" width="220" height="30" as="geometry" />
        </mxCell>
        <mxCell id="oZx9LvJfd-q3sRP_gs2j-65" value="user_email" style="shape=partialRectangle;overflow=hidden;connectable=0;fillColor=none;top=0;left=0;bottom=0;right=0;align=left;spacingLeft=6;" vertex="1" parent="1">
          <mxGeometry x="1510" y="2400" width="220" height="30" as="geometry" />
        </mxCell>
        <mxCell id="oZx9LvJfd-q3sRP_gs2j-66" value="user_mobile" style="shape=partialRectangle;overflow=hidden;connectable=0;fillColor=none;top=0;left=0;bottom=0;right=0;align=left;spacingLeft=6;" vertex="1" parent="1">
          <mxGeometry x="1510" y="2420" width="220" height="30" as="geometry" />
        </mxCell>
        <mxCell id="oZx9LvJfd-q3sRP_gs2j-67" value="user_designation" style="shape=partialRectangle;overflow=hidden;connectable=0;fillColor=none;top=0;left=0;bottom=0;right=0;align=left;spacingLeft=6;" vertex="1" parent="1">
          <mxGeometry x="1510" y="2440" width="220" height="30" as="geometry" />
        </mxCell>
        <mxCell id="oZx9LvJfd-q3sRP_gs2j-68" value="user_last_login_date_time" style="shape=partialRectangle;overflow=hidden;connectable=0;fillColor=none;top=0;left=0;bottom=0;right=0;align=left;spacingLeft=6;" vertex="1" parent="1">
          <mxGeometry x="1510" y="2460" width="220" height="30" as="geometry" />
        </mxCell>
        <mxCell id="oZx9LvJfd-q3sRP_gs2j-69" value="user_entry_date" style="shape=partialRectangle;overflow=hidden;connectable=0;fillColor=none;top=0;left=0;bottom=0;right=0;align=left;spacingLeft=6;" vertex="1" parent="1">
          <mxGeometry x="1510" y="2480" width="220" height="30" as="geometry" />
        </mxCell>
        <mxCell id="oZx9LvJfd-q3sRP_gs2j-70" value="user_modification_date" style="shape=partialRectangle;overflow=hidden;connectable=0;fillColor=none;top=0;left=0;bottom=0;right=0;align=left;spacingLeft=6;" vertex="1" parent="1">
          <mxGeometry x="1510" y="2500" width="220" height="30" as="geometry" />
        </mxCell>
        <mxCell id="oZx9LvJfd-q3sRP_gs2j-73" value="" style="shape=partialRectangle;collapsible=0;dropTarget=0;pointerEvents=0;fillColor=none;points=[[0,0.5],[1,0.5]];portConstraint=eastwest;top=0;left=0;right=0;bottom=0;" vertex="1" parent="1">
          <mxGeometry x="1480" y="2360" width="250" height="30" as="geometry" />
        </mxCell>
        <mxCell id="oZx9LvJfd-q3sRP_gs2j-74" value="FK" style="shape=partialRectangle;overflow=hidden;connectable=0;fillColor=none;top=0;left=0;bottom=0;right=0;" vertex="1" parent="oZx9LvJfd-q3sRP_gs2j-73">
          <mxGeometry width="30" height="30" as="geometry" />
        </mxCell>
        <mxCell id="oZx9LvJfd-q3sRP_gs2j-75" value="user_name" style="shape=partialRectangle;overflow=hidden;connectable=0;fillColor=none;top=0;left=0;bottom=0;right=0;align=left;spacingLeft=6;" vertex="1" parent="oZx9LvJfd-q3sRP_gs2j-73">
          <mxGeometry x="30" width="220" height="30" as="geometry" />
        </mxCell>
        <mxCell id="oZx9LvJfd-q3sRP_gs2j-76" value="" style="shape=partialRectangle;collapsible=0;dropTarget=0;pointerEvents=0;fillColor=none;points=[[0,0.5],[1,0.5]];portConstraint=eastwest;top=0;left=0;right=0;bottom=0;" vertex="1" parent="1">
          <mxGeometry x="1480" y="2380" width="250" height="30" as="geometry" />
        </mxCell>
        <mxCell id="oZx9LvJfd-q3sRP_gs2j-77" value="FK" style="shape=partialRectangle;overflow=hidden;connectable=0;fillColor=none;top=0;left=0;bottom=0;right=0;" vertex="1" parent="oZx9LvJfd-q3sRP_gs2j-76">
          <mxGeometry width="30" height="30" as="geometry" />
        </mxCell>
        <mxCell id="oZx9LvJfd-q3sRP_gs2j-78" value="user_password" style="shape=partialRectangle;overflow=hidden;connectable=0;fillColor=none;top=0;left=0;bottom=0;right=0;align=left;spacingLeft=6;" vertex="1" parent="oZx9LvJfd-q3sRP_gs2j-76">
          <mxGeometry x="30" width="220" height="30" as="geometry" />
        </mxCell>
        <mxCell id="oZx9LvJfd-q3sRP_gs2j-82" value="tbl_task_emp_log" style="shape=table;startSize=30;container=1;collapsible=1;childLayout=tableLayout;fixedRows=1;rowLines=0;fontStyle=1;align=center;resizeLast=1;" vertex="1" parent="1">
          <mxGeometry x="2120" y="1880" width="250" height="160" as="geometry" />
        </mxCell>
        <mxCell id="oZx9LvJfd-q3sRP_gs2j-83" value="" style="shape=partialRectangle;collapsible=0;dropTarget=0;pointerEvents=0;fillColor=none;points=[[0,0.5],[1,0.5]];portConstraint=eastwest;top=0;left=0;right=0;bottom=1;" vertex="1" parent="oZx9LvJfd-q3sRP_gs2j-82">
          <mxGeometry y="30" width="250" height="30" as="geometry" />
        </mxCell>
        <mxCell id="oZx9LvJfd-q3sRP_gs2j-84" value="PK" style="shape=partialRectangle;overflow=hidden;connectable=0;fillColor=none;top=0;left=0;bottom=0;right=0;fontStyle=1;" vertex="1" parent="oZx9LvJfd-q3sRP_gs2j-83">
          <mxGeometry width="30" height="30" as="geometry" />
        </mxCell>
        <mxCell id="oZx9LvJfd-q3sRP_gs2j-85" value="task_emp_log_id" style="shape=partialRectangle;overflow=hidden;connectable=0;fillColor=none;top=0;left=0;bottom=0;right=0;align=left;spacingLeft=6;fontStyle=5;" vertex="1" parent="oZx9LvJfd-q3sRP_gs2j-83">
          <mxGeometry x="30" width="220" height="30" as="geometry" />
        </mxCell>
        <mxCell id="oZx9LvJfd-q3sRP_gs2j-86" value="" style="shape=partialRectangle;collapsible=0;dropTarget=0;pointerEvents=0;fillColor=none;points=[[0,0.5],[1,0.5]];portConstraint=eastwest;top=0;left=0;right=0;bottom=0;" vertex="1" parent="oZx9LvJfd-q3sRP_gs2j-82">
          <mxGeometry y="60" width="250" height="30" as="geometry" />
        </mxCell>
        <mxCell id="oZx9LvJfd-q3sRP_gs2j-87" value="FK" style="shape=partialRectangle;overflow=hidden;connectable=0;fillColor=none;top=0;left=0;bottom=0;right=0;" vertex="1" parent="oZx9LvJfd-q3sRP_gs2j-86">
          <mxGeometry width="30" height="30" as="geometry" />
        </mxCell>
        <mxCell id="oZx9LvJfd-q3sRP_gs2j-88" value="task_emp_id" style="shape=partialRectangle;overflow=hidden;connectable=0;fillColor=none;top=0;left=0;bottom=0;right=0;align=left;spacingLeft=6;" vertex="1" parent="oZx9LvJfd-q3sRP_gs2j-86">
          <mxGeometry x="30" width="220" height="30" as="geometry" />
        </mxCell>
        <mxCell id="oZx9LvJfd-q3sRP_gs2j-89" value="start_date" style="shape=partialRectangle;overflow=hidden;connectable=0;fillColor=none;top=0;left=0;bottom=0;right=0;align=left;spacingLeft=6;" vertex="1" parent="1">
          <mxGeometry x="2150" y="1960" width="220" height="30" as="geometry" />
        </mxCell>
        <mxCell id="oZx9LvJfd-q3sRP_gs2j-90" value="end_date" style="shape=partialRectangle;overflow=hidden;connectable=0;fillColor=none;top=0;left=0;bottom=0;right=0;align=left;spacingLeft=6;" vertex="1" parent="1">
          <mxGeometry x="2150" y="1980" width="220" height="30" as="geometry" />
        </mxCell>
        <mxCell id="oZx9LvJfd-q3sRP_gs2j-91" value="task_emp_log_status" style="shape=partialRectangle;overflow=hidden;connectable=0;fillColor=none;top=0;left=0;bottom=0;right=0;align=left;spacingLeft=6;" vertex="1" parent="1">
          <mxGeometry x="2150" y="2000" width="220" height="30" as="geometry" />
        </mxCell>
        <mxCell id="oZx9LvJfd-q3sRP_gs2j-101" style="edgeStyle=orthogonalEdgeStyle;rounded=0;orthogonalLoop=1;jettySize=auto;html=1;exitX=0;exitY=0.5;exitDx=0;exitDy=0;entryX=1;entryY=0.5;entryDx=0;entryDy=0;" edge="1" parent="1" source="oZx9LvJfd-q3sRP_gs2j-86" target="oZx9LvJfd-q3sRP_gs2j-31">
          <mxGeometry relative="1" as="geometry" />
        </mxCell>
        <mxCell id="oZx9LvJfd-q3sRP_gs2j-102" value="tbl_task_emp_qty" style="shape=table;startSize=30;container=1;collapsible=1;childLayout=tableLayout;fixedRows=1;rowLines=0;fontStyle=1;align=center;resizeLast=1;" vertex="1" parent="1">
          <mxGeometry x="2120" y="2080" width="250" height="120" as="geometry" />
        </mxCell>
        <mxCell id="oZx9LvJfd-q3sRP_gs2j-103" value="" style="shape=partialRectangle;collapsible=0;dropTarget=0;pointerEvents=0;fillColor=none;points=[[0,0.5],[1,0.5]];portConstraint=eastwest;top=0;left=0;right=0;bottom=1;" vertex="1" parent="oZx9LvJfd-q3sRP_gs2j-102">
          <mxGeometry y="30" width="250" height="30" as="geometry" />
        </mxCell>
        <mxCell id="oZx9LvJfd-q3sRP_gs2j-104" value="PK" style="shape=partialRectangle;overflow=hidden;connectable=0;fillColor=none;top=0;left=0;bottom=0;right=0;fontStyle=1;" vertex="1" parent="oZx9LvJfd-q3sRP_gs2j-103">
          <mxGeometry width="30" height="30" as="geometry" />
        </mxCell>
        <mxCell id="oZx9LvJfd-q3sRP_gs2j-105" value="task_emp_qty" style="shape=partialRectangle;overflow=hidden;connectable=0;fillColor=none;top=0;left=0;bottom=0;right=0;align=left;spacingLeft=6;fontStyle=5;" vertex="1" parent="oZx9LvJfd-q3sRP_gs2j-103">
          <mxGeometry x="30" width="220" height="30" as="geometry" />
        </mxCell>
        <mxCell id="oZx9LvJfd-q3sRP_gs2j-106" value="" style="shape=partialRectangle;collapsible=0;dropTarget=0;pointerEvents=0;fillColor=none;points=[[0,0.5],[1,0.5]];portConstraint=eastwest;top=0;left=0;right=0;bottom=0;" vertex="1" parent="oZx9LvJfd-q3sRP_gs2j-102">
          <mxGeometry y="60" width="250" height="30" as="geometry" />
        </mxCell>
        <mxCell id="oZx9LvJfd-q3sRP_gs2j-107" value="FK" style="shape=partialRectangle;overflow=hidden;connectable=0;fillColor=none;top=0;left=0;bottom=0;right=0;" vertex="1" parent="oZx9LvJfd-q3sRP_gs2j-106">
          <mxGeometry width="30" height="30" as="geometry" />
        </mxCell>
        <mxCell id="oZx9LvJfd-q3sRP_gs2j-108" value="task_emp_id" style="shape=partialRectangle;overflow=hidden;connectable=0;fillColor=none;top=0;left=0;bottom=0;right=0;align=left;spacingLeft=6;" vertex="1" parent="oZx9LvJfd-q3sRP_gs2j-106">
          <mxGeometry x="30" width="220" height="30" as="geometry" />
        </mxCell>
        <mxCell id="oZx9LvJfd-q3sRP_gs2j-109" value="task_emp_status" style="shape=partialRectangle;overflow=hidden;connectable=0;fillColor=none;top=0;left=0;bottom=0;right=0;align=left;spacingLeft=6;" vertex="1" parent="1">
          <mxGeometry x="2150" y="2160" width="220" height="30" as="geometry" />
        </mxCell>
        <mxCell id="oZx9LvJfd-q3sRP_gs2j-112" style="edgeStyle=orthogonalEdgeStyle;rounded=0;orthogonalLoop=1;jettySize=auto;html=1;exitX=0;exitY=0.5;exitDx=0;exitDy=0;entryX=1;entryY=0.5;entryDx=0;entryDy=0;" edge="1" parent="1" source="oZx9LvJfd-q3sRP_gs2j-106" target="oZx9LvJfd-q3sRP_gs2j-31">
          <mxGeometry relative="1" as="geometry" />
        </mxCell>
        <mxCell id="oZx9LvJfd-q3sRP_gs2j-113" value="tbl_task_emp_qty_sub" style="shape=table;startSize=30;container=1;collapsible=1;childLayout=tableLayout;fixedRows=1;rowLines=0;fontStyle=1;align=center;resizeLast=1;" vertex="1" parent="1">
          <mxGeometry x="2440" y="2080" width="250" height="140" as="geometry" />
        </mxCell>
        <mxCell id="oZx9LvJfd-q3sRP_gs2j-114" value="" style="shape=partialRectangle;collapsible=0;dropTarget=0;pointerEvents=0;fillColor=none;points=[[0,0.5],[1,0.5]];portConstraint=eastwest;top=0;left=0;right=0;bottom=1;" vertex="1" parent="oZx9LvJfd-q3sRP_gs2j-113">
          <mxGeometry y="30" width="250" height="30" as="geometry" />
        </mxCell>
        <mxCell id="oZx9LvJfd-q3sRP_gs2j-115" value="PK" style="shape=partialRectangle;overflow=hidden;connectable=0;fillColor=none;top=0;left=0;bottom=0;right=0;fontStyle=1;" vertex="1" parent="oZx9LvJfd-q3sRP_gs2j-114">
          <mxGeometry width="30" height="30" as="geometry" />
        </mxCell>
        <mxCell id="oZx9LvJfd-q3sRP_gs2j-116" value="task_emp_qty_sub_id" style="shape=partialRectangle;overflow=hidden;connectable=0;fillColor=none;top=0;left=0;bottom=0;right=0;align=left;spacingLeft=6;fontStyle=5;" vertex="1" parent="oZx9LvJfd-q3sRP_gs2j-114">
          <mxGeometry x="30" width="220" height="30" as="geometry" />
        </mxCell>
        <mxCell id="oZx9LvJfd-q3sRP_gs2j-117" value="" style="shape=partialRectangle;collapsible=0;dropTarget=0;pointerEvents=0;fillColor=none;points=[[0,0.5],[1,0.5]];portConstraint=eastwest;top=0;left=0;right=0;bottom=0;" vertex="1" parent="oZx9LvJfd-q3sRP_gs2j-113">
          <mxGeometry y="60" width="250" height="30" as="geometry" />
        </mxCell>
        <mxCell id="oZx9LvJfd-q3sRP_gs2j-118" value="FK" style="shape=partialRectangle;overflow=hidden;connectable=0;fillColor=none;top=0;left=0;bottom=0;right=0;" vertex="1" parent="oZx9LvJfd-q3sRP_gs2j-117">
          <mxGeometry width="30" height="30" as="geometry" />
        </mxCell>
        <mxCell id="oZx9LvJfd-q3sRP_gs2j-119" value="task_emp_qty_id" style="shape=partialRectangle;overflow=hidden;connectable=0;fillColor=none;top=0;left=0;bottom=0;right=0;align=left;spacingLeft=6;" vertex="1" parent="oZx9LvJfd-q3sRP_gs2j-117">
          <mxGeometry x="30" width="220" height="30" as="geometry" />
        </mxCell>
        <mxCell id="oZx9LvJfd-q3sRP_gs2j-121" value="task_emp_sub_status" style="shape=partialRectangle;overflow=hidden;connectable=0;fillColor=none;top=0;left=0;bottom=0;right=0;align=left;spacingLeft=6;" vertex="1" parent="1">
          <mxGeometry x="2470" y="2180" width="220" height="30" as="geometry" />
        </mxCell>
        <mxCell id="oZx9LvJfd-q3sRP_gs2j-127" style="edgeStyle=orthogonalEdgeStyle;rounded=0;orthogonalLoop=1;jettySize=auto;html=1;exitX=0;exitY=0.5;exitDx=0;exitDy=0;entryX=1;entryY=0.5;entryDx=0;entryDy=0;" edge="1" parent="1" source="oZx9LvJfd-q3sRP_gs2j-124" target="Ptq-kPGtWIjx5gkYeYEC-326">
          <mxGeometry relative="1" as="geometry">
            <Array as="points">
              <mxPoint x="2410" y="2175" />
              <mxPoint x="2410" y="1860" />
              <mxPoint x="1130" y="1860" />
            </Array>
          </mxGeometry>
        </mxCell>
        <mxCell id="oZx9LvJfd-q3sRP_gs2j-124" value="" style="shape=partialRectangle;collapsible=0;dropTarget=0;pointerEvents=0;fillColor=none;points=[[0,0.5],[1,0.5]];portConstraint=eastwest;top=0;left=0;right=0;bottom=0;" vertex="1" parent="1">
          <mxGeometry x="2440" y="2160" width="250" height="30" as="geometry" />
        </mxCell>
        <mxCell id="oZx9LvJfd-q3sRP_gs2j-125" value="FK" style="shape=partialRectangle;overflow=hidden;connectable=0;fillColor=none;top=0;left=0;bottom=0;right=0;" vertex="1" parent="oZx9LvJfd-q3sRP_gs2j-124">
          <mxGeometry width="30" height="30" as="geometry" />
        </mxCell>
        <mxCell id="oZx9LvJfd-q3sRP_gs2j-126" value="sub_product_id" style="shape=partialRectangle;overflow=hidden;connectable=0;fillColor=none;top=0;left=0;bottom=0;right=0;align=left;spacingLeft=6;" vertex="1" parent="oZx9LvJfd-q3sRP_gs2j-124">
          <mxGeometry x="30" width="220" height="30" as="geometry" />
        </mxCell>
        <mxCell id="oZx9LvJfd-q3sRP_gs2j-128" value="tbl_task_file" style="shape=table;startSize=30;container=1;collapsible=1;childLayout=tableLayout;fixedRows=1;rowLines=0;fontStyle=1;align=center;resizeLast=1;" vertex="1" parent="1">
          <mxGeometry x="1800" y="1715" width="250" height="120" as="geometry" />
        </mxCell>
        <mxCell id="oZx9LvJfd-q3sRP_gs2j-129" value="" style="shape=partialRectangle;collapsible=0;dropTarget=0;pointerEvents=0;fillColor=none;points=[[0,0.5],[1,0.5]];portConstraint=eastwest;top=0;left=0;right=0;bottom=1;" vertex="1" parent="oZx9LvJfd-q3sRP_gs2j-128">
          <mxGeometry y="30" width="250" height="30" as="geometry" />
        </mxCell>
        <mxCell id="oZx9LvJfd-q3sRP_gs2j-130" value="PK" style="shape=partialRectangle;overflow=hidden;connectable=0;fillColor=none;top=0;left=0;bottom=0;right=0;fontStyle=1;" vertex="1" parent="oZx9LvJfd-q3sRP_gs2j-129">
          <mxGeometry width="30" height="30" as="geometry" />
        </mxCell>
        <mxCell id="oZx9LvJfd-q3sRP_gs2j-131" value="task_file_id" style="shape=partialRectangle;overflow=hidden;connectable=0;fillColor=none;top=0;left=0;bottom=0;right=0;align=left;spacingLeft=6;fontStyle=5;" vertex="1" parent="oZx9LvJfd-q3sRP_gs2j-129">
          <mxGeometry x="30" width="220" height="30" as="geometry" />
        </mxCell>
        <mxCell id="oZx9LvJfd-q3sRP_gs2j-132" value="" style="shape=partialRectangle;collapsible=0;dropTarget=0;pointerEvents=0;fillColor=none;points=[[0,0.5],[1,0.5]];portConstraint=eastwest;top=0;left=0;right=0;bottom=0;" vertex="1" parent="oZx9LvJfd-q3sRP_gs2j-128">
          <mxGeometry y="60" width="250" height="30" as="geometry" />
        </mxCell>
        <mxCell id="oZx9LvJfd-q3sRP_gs2j-133" value="FK" style="shape=partialRectangle;overflow=hidden;connectable=0;fillColor=none;top=0;left=0;bottom=0;right=0;" vertex="1" parent="oZx9LvJfd-q3sRP_gs2j-132">
          <mxGeometry width="30" height="30" as="geometry" />
        </mxCell>
        <mxCell id="oZx9LvJfd-q3sRP_gs2j-134" value="task_id" style="shape=partialRectangle;overflow=hidden;connectable=0;fillColor=none;top=0;left=0;bottom=0;right=0;align=left;spacingLeft=6;" vertex="1" parent="oZx9LvJfd-q3sRP_gs2j-132">
          <mxGeometry x="30" width="220" height="30" as="geometry" />
        </mxCell>
        <mxCell id="oZx9LvJfd-q3sRP_gs2j-135" value="task_file_name" style="shape=partialRectangle;overflow=hidden;connectable=0;fillColor=none;top=0;left=0;bottom=0;right=0;align=left;spacingLeft=6;" vertex="1" parent="1">
          <mxGeometry x="1830" y="1795" width="220" height="30" as="geometry" />
        </mxCell>
        <mxCell id="oZx9LvJfd-q3sRP_gs2j-136" style="edgeStyle=orthogonalEdgeStyle;rounded=0;orthogonalLoop=1;jettySize=auto;html=1;exitX=0;exitY=0.5;exitDx=0;exitDy=0;entryX=1;entryY=0.5;entryDx=0;entryDy=0;" edge="1" parent="1" source="oZx9LvJfd-q3sRP_gs2j-132" target="oZx9LvJfd-q3sRP_gs2j-2">
          <mxGeometry relative="1" as="geometry" />
        </mxCell>
      </root>
    </mxGraphModel>
  </diagram>
</mxfile>
